<svg width="67" height="20" viewBox="0 0 67 20" fill="none" xmlns="http://www.w3.org/2000/svg">
<path d="M11.5576 11.3137C11.6434 11.5122 11.6602 11.7376 11.6148 11.9933C11.5576 12.296 11.4247 12.5315 11.2178 12.7199C11.0076 12.9033 10.7771 13.0059 10.5248 13.0294C10.2708 13.053 9.95963 13.0294 9.59294 12.9638L8.96383 12.8427C8.75357 12.8074 8.6291 12.767 8.582 12.7384C8.53995 12.7082 8.51304 12.6627 8.50294 12.6005C8.4979 12.5585 8.51808 12.3936 8.56013 12.1346L8.90833 10.2691L10.0269 10.476C10.5181 10.5685 10.8713 10.6779 11.0934 10.8124C11.3154 10.9437 11.4701 11.1135 11.5576 11.3137ZM11.6165 7.37931C11.418 7.27502 11.0412 7.16569 10.4861 7.06308L9.54079 6.88646L9.14718 8.98907L10.0942 9.16737C10.587 9.2582 10.9638 9.28175 11.2161 9.24306C11.4685 9.20942 11.6669 9.11691 11.82 8.97225C11.968 8.83095 12.0656 8.64929 12.106 8.42725C12.1497 8.20017 12.1295 7.99664 12.0437 7.81665C11.963 7.63667 11.8217 7.49538 11.6165 7.37931ZM20 10C20 15.5223 15.5223 20 9.99832 20C4.47603 20 0 15.5223 0 10C0 4.47603 4.47603 4.73939e-07 9.99832 4.73939e-07C15.5223 -0.00168161 20 4.47435 20 10ZM14.1144 7.35744C13.9428 6.98738 13.6585 6.67788 13.2666 6.41716C13.1152 6.31287 12.9251 6.22876 12.7166 6.14634L13.0025 4.62742L11.5425 4.35492L11.2767 5.77628L10.3364 5.59966L10.6039 4.18167L9.14214 3.9058L8.87468 5.33053L6.64424 4.90665L6.4222 6.09924L6.76367 6.16821C6.99075 6.20353 7.14214 6.25736 7.21278 6.31623C7.2868 6.36838 7.33053 6.43398 7.35071 6.51135C7.3709 6.58873 7.35744 6.75694 7.31035 7.00925L6.41043 11.8217C6.36501 12.0706 6.31791 12.2288 6.27082 12.2944C6.22372 12.36 6.15812 12.4054 6.06897 12.4289C5.97982 12.4592 5.82506 12.4458 5.59966 12.402L5.25652 12.3398L5.03448 13.5324L7.26156 13.9495L6.99916 15.3726L8.45921 15.6451L8.7233 14.2254L9.55425 14.3802C9.59125 14.3869 9.62489 14.3869 9.6619 14.397L9.39781 15.82L10.8562 16.0925L11.1472 14.5517C11.3978 14.5484 11.6249 14.5282 11.8251 14.4929C12.365 14.3886 12.8124 14.1648 13.1606 13.8267C13.5071 13.4987 13.7258 13.1035 13.8116 12.6442C13.8839 12.259 13.857 11.8957 13.7342 11.5542C13.6114 11.2061 13.4096 10.9201 13.1337 10.6863C12.9437 10.5214 12.6543 10.3516 12.2708 10.1733C12.6695 10.1144 13.0042 10.0084 13.27 9.85702C13.5357 9.70564 13.7561 9.50883 13.9243 9.27839C14.0942 9.03953 14.2069 8.78049 14.259 8.4979C14.3297 8.1127 14.286 7.7275 14.1144 7.35744ZM22.9655 2.13793L21.4584 9.672C21.3675 10.1127 21.2918 10.5685 21.2918 11.0261C21.2918 12.3499 22.1749 13.1119 23.9394 13.1119C27.2868 13.1119 28.8696 10.3431 28.8696 7.92431C28.8696 6.59714 28.1716 5.33221 26.6173 5.33221C25.7056 5.33221 24.8696 5.72919 24.3213 6.38352H24.2893L25.1707 2.14298L22.9655 2.13793ZM23.7712 9.19596C24.0303 7.89908 24.8057 7.09672 25.598 7.09672C26.2658 7.09672 26.5685 7.65854 26.5685 8.37679C26.5685 9.68209 25.6585 11.4466 24.3953 11.4466C23.8907 11.4466 23.5728 11.1573 23.5576 10.6274C23.5425 10.3095 23.603 10.0521 23.635 9.80992L23.7712 9.19596ZM31.6585 12.9403L33.0732 5.49874H30.8831L29.4668 12.9403H31.6585ZM32.2506 4.57023C32.9521 4.57023 33.5442 4.11438 33.5442 3.34062C33.5442 2.68461 33.0883 2.26072 32.4525 2.26072C31.7813 2.26072 31.2027 2.76199 31.1876 3.50547C31.1859 4.1598 31.6434 4.57023 32.2506 4.57023ZM35.4785 3.9344L35.1724 5.5021H34.217L33.9125 7.16064H34.8579L34.2759 10.1312C34.1716 10.693 34.1245 11.1001 34.1245 11.5105C34.1245 12.4441 34.7502 13.1102 36.0555 13.1102C36.5248 13.1102 37.0715 13.0479 37.3524 12.9386L37.6098 11.2212C37.4113 11.2548 37.1976 11.2548 37.0042 11.2548C36.5299 11.2548 36.3768 10.9992 36.3768 10.6308C36.3768 10.3768 36.439 9.99327 36.4979 9.68545L37.0042 7.16232H38.582L38.8982 5.50379H37.3204L37.714 3.42136L35.4785 3.9344ZM44.2019 11.0412C43.8217 11.1926 43.3675 11.344 42.725 11.344C41.9058 11.344 41.2683 10.8276 41.2683 9.80992C41.2683 8.40707 42.222 7.08663 43.7948 7.08663C44.2372 7.08663 44.5349 7.16232 44.799 7.26661L45.3288 5.59462C45.0126 5.45669 44.4592 5.33221 43.8217 5.33221C40.9857 5.33221 38.9655 7.40454 38.9655 10.0572C38.9655 11.9849 40.2607 13.1001 42.0959 13.1001C42.979 13.1001 43.7426 12.9453 44.2119 12.7216L44.2019 11.0412ZM49.894 5.33053C47.2464 5.33053 45.4483 7.4466 45.4483 10.0353C45.4483 11.8823 46.7098 13.1102 48.5988 13.1102C51.1876 13.1102 53.0412 11.1119 53.0412 8.39193C53.0463 6.70479 51.889 5.33053 49.894 5.33053ZM49.6064 6.99075C50.4878 6.99075 50.7771 7.72414 50.7771 8.40707C50.7771 9.68545 50.111 11.4365 48.91 11.4365C48.148 11.4365 47.7208 10.8579 47.7208 9.99496C47.7056 8.83263 48.3448 6.99075 49.6064 6.99075ZM55.8957 12.9403L57.3137 5.49874H55.1169L53.704 12.9403H55.8957ZM56.4878 4.57023C57.1876 4.57023 57.783 4.11438 57.783 3.34062C57.783 2.68461 57.3272 2.26072 56.688 2.26072C56.0219 2.26072 55.4432 2.76199 55.4264 3.50547C55.4247 4.1598 55.8806 4.57023 56.4878 4.57023ZM59.9277 12.9403L60.5517 9.63835C60.8579 7.99664 61.6989 7.09672 62.4087 7.09672C62.9571 7.09672 63.1421 7.46342 63.1421 7.97814C63.1421 8.25063 63.1085 8.55509 63.0664 8.81581L62.291 12.9352H64.4828L65.3036 8.61733C65.3625 8.25063 65.4247 7.68545 65.4247 7.35576C65.4247 6.07233 64.7384 5.32885 63.5189 5.32885C62.5299 5.32885 61.6013 5.7561 60.9016 6.72835H60.8696L61.0227 5.49874H59.0748C58.9807 6.1598 58.8612 6.97729 58.6796 7.92094L57.7342 12.9352L59.9277 12.9403ZM21.2918 17.7881C21.492 17.8116 21.7881 17.8368 22.2052 17.8368C22.9016 17.8368 23.4718 17.6888 23.8469 17.381C24.1901 17.0883 24.439 16.619 24.439 15.9428C24.439 15.3154 24.2069 14.8713 23.8385 14.5988C23.4954 14.3431 23.0563 14.217 22.3818 14.217C21.9764 14.217 21.5896 14.2439 21.2952 14.2893V17.7881H21.2918ZM22.0976 14.868C22.1665 14.8511 22.2826 14.8343 22.4626 14.8343C23.1539 14.8343 23.5879 15.2246 23.5812 15.9647C23.5812 16.8124 23.1068 17.2161 22.3785 17.2094C22.2759 17.2094 22.1665 17.2094 22.0976 17.1926V14.868ZM24.9672 14.2439V17.8015H25.7746V14.2439H24.9672ZM29.4449 15.7645H28.1194V16.3919H28.6695V17.1371C28.6056 17.1674 28.4575 17.1892 28.2725 17.1892C27.6131 17.1892 27.1539 16.7519 27.1539 16.0235C27.1539 15.2515 27.6602 14.8696 28.3314 14.8696C28.7199 14.8696 28.9638 14.9386 29.159 15.0244L29.3288 14.3802C29.1539 14.2944 28.8024 14.2035 28.3415 14.2035C27.1758 14.2035 26.3145 14.8797 26.3095 16.0622C26.3045 16.582 26.4844 17.0479 26.8108 17.3541C27.1371 17.672 27.6081 17.8335 28.2574 17.8335C28.7267 17.8335 29.196 17.7191 29.4449 17.6333V15.7645ZM30.0757 14.2439V17.8015H30.8814V14.2439H30.0757ZM32.2658 17.8015H33.0732V14.9201H34.0454V14.2439H31.3103V14.9201H32.2641L32.2658 17.8015ZM35.9428 16.8881L36.2187 17.8015H37.0883L35.9849 14.2439H34.9268L33.8402 17.8015H34.6762L34.9251 16.8881H35.9428ZM35.0378 16.2876L35.2481 15.5324C35.307 15.3255 35.3591 15.0597 35.4163 14.8461H35.4264C35.4786 15.0597 35.5408 15.3221 35.603 15.5324L35.8267 16.2876H35.0378ZM37.5593 17.8015H39.7813V17.1253H38.365V14.2439H37.5593V17.8015ZM43.82 17.0732C43.6585 17.1388 43.3894 17.1909 43.1472 17.1909C42.4306 17.1909 42.0101 16.7368 42.0101 16.0286C42.0101 15.2363 42.5063 14.8528 43.1438 14.8528C43.4298 14.8528 43.6585 14.9151 43.82 14.984L43.9849 14.3465C43.8402 14.2708 43.5273 14.185 43.1085 14.185C42.0269 14.185 41.1674 14.8612 41.1674 16.074C41.1674 17.09 41.8015 17.8553 43.0294 17.8553C43.4634 17.8553 43.7914 17.7763 43.9428 17.7006L43.82 17.0732ZM44.4643 14.2439V16.2288C44.4643 17.3659 44.9924 17.8621 45.8923 17.8621C46.8225 17.8621 47.3776 17.3389 47.3776 16.2389V14.2439H46.5719V16.2944C46.5719 16.9218 46.3415 17.2178 45.9176 17.2178C45.5071 17.2178 45.2733 16.905 45.2733 16.2944V14.2439H44.4643ZM48.0723 17.8015H48.873V16.402H49.1169C49.4449 16.4087 49.5963 16.5265 49.6955 16.9739C49.7998 17.4146 49.8823 17.704 49.9411 17.8015H50.762C50.693 17.6636 50.5854 17.2044 50.471 16.799C50.3818 16.471 50.2439 16.2338 49.9966 16.1329V16.1161C50.3061 16.0118 50.6274 15.6955 50.6274 15.2414C50.6274 14.9134 50.5114 14.6627 50.2994 14.4962C50.0471 14.296 49.6787 14.217 49.1489 14.217C48.7166 14.217 48.3347 14.2506 48.0723 14.2893V17.8015ZM48.8696 14.8427C48.9251 14.8326 49.0429 14.8124 49.2346 14.8124C49.6081 14.8192 49.8284 14.984 49.8284 15.312C49.8284 15.6215 49.5896 15.8251 49.1909 15.8251H48.8747L48.8696 14.8427ZM51.2044 17.8015H52.0017V16.402H52.2473C52.5753 16.4087 52.73 16.5265 52.8242 16.9739C52.9302 17.4146 53.0126 17.704 53.0715 17.8015H53.894C53.8251 17.6636 53.7157 17.2044 53.6013 16.799C53.5105 16.471 53.3726 16.2338 53.1287 16.1329V16.1161C53.4365 16.0118 53.7561 15.6955 53.7561 15.2414C53.7561 14.9134 53.6434 14.6627 53.4298 14.4962C53.1808 14.296 52.8091 14.217 52.2775 14.217C51.8503 14.217 51.4685 14.2506 51.2044 14.2893V17.8015ZM52 14.8427C52.0589 14.8326 52.1716 14.8124 52.365 14.8124C52.7368 14.8192 52.9571 14.984 52.9571 15.312C52.9571 15.6215 52.7199 15.8251 52.3196 15.8251H52.0034L52 14.8427ZM56.4542 15.6434H55.1455V14.905H56.5332V14.2439H54.3347V17.8015H56.6072V17.1371H55.1455V16.2927H56.4542V15.6434ZM57.894 17.8015V16.73C57.894 16.148 57.8839 15.6451 57.8604 15.1758L57.8806 15.1724C58.0555 15.5896 58.2843 16.0488 58.4945 16.4306L59.2532 17.7998H60.1009V14.2422H59.3625V15.2834C59.3625 15.8116 59.3793 16.296 59.4315 16.7653H59.4146C59.2532 16.365 59.0429 15.9209 58.8326 15.5425L58.0942 14.2422H57.1539V17.7998H57.894V17.8015ZM63.2918 17.0732C63.1337 17.1388 62.8646 17.1909 62.6257 17.1909C61.9058 17.1909 61.4853 16.7368 61.4853 16.0286C61.4853 15.2363 61.9815 14.8528 62.619 14.8528C62.905 14.8528 63.1337 14.9151 63.2918 14.984L63.4601 14.3465C63.3154 14.2708 63.0025 14.185 62.5837 14.185C61.5021 14.185 60.6426 14.8612 60.6426 16.074C60.6426 17.09 61.2767 17.8553 62.5046 17.8553C62.9386 17.8553 63.27 17.7763 63.418 17.7006L63.2918 17.0732ZM65.6081 17.8015V16.3196L66.7771 14.2439H65.8772L65.5172 15.0984C65.4129 15.3507 65.3305 15.5576 65.2481 15.778H65.238C65.1472 15.5442 65.0715 15.3574 64.9655 15.0984L64.6005 14.2439H63.6787L64.8024 16.3431V17.8015H65.6081Z" fill="#EBF5FE"/>
</svg>
