<svg width="10" height="20" viewBox="0 0 10 20" fill="none" xmlns="http://www.w3.org/2000/svg">
<path d="M8.83099 0.00416134L6.79449 0C4.50655 0 3.02799 1.9319 3.02799 4.92203V7.19141H0.980376C0.803439 7.19141 0.660156 7.37409 0.660156 7.59943V10.8875C0.660156 11.1128 0.803602 11.2953 0.980376 11.2953H3.02799V19.5922C3.02799 19.8175 3.17127 20 3.34821 20H6.01976C6.19669 20 6.33998 19.8173 6.33998 19.5922V11.2953H8.73411C8.91105 11.2953 9.05433 11.1128 9.05433 10.8875L9.05531 7.59943C9.05531 7.49123 9.02149 7.38762 8.96153 7.31105C8.90157 7.23448 8.81988 7.19141 8.73493 7.19141H6.33998V5.26763C6.33998 4.34298 6.51299 3.87358 7.45879 3.87358L8.83067 3.87295C9.00744 3.87295 9.15072 3.69027 9.15072 3.46514V0.411972C9.15072 0.187052 9.0076 0.00457747 8.83099 0.00416134Z" fill="#EBF5FE"/>
</svg>
