<svg width="40" height="26" viewBox="0 0 40 26" fill="none" xmlns="http://www.w3.org/2000/svg">
<path d="M36.7097 0.000976562H2.97185C1.33049 0.000976562 0 1.33147 0 2.97283V23.0274C0 24.6687 1.33049 25.9993 2.97185 25.9993H36.7097C38.351 25.9993 39.6815 24.6688 39.6815 23.0274V2.97283C39.6815 1.33147 38.351 0.000976562 36.7097 0.000976562Z" fill="#F5F5F5"/>
<path d="M0.162598 2.00001H39.5172C39.1144 0.836147 38.0096 0.00012207 36.7088 0.00012207H2.971C1.67019 0.00012207 0.565381 0.836147 0.162598 2.00001Z" fill="#FF4B55"/>
<path d="M39.6815 7.99951H0V9.99932H39.6815V7.99951Z" fill="#FF4B55"/>
<path d="M39.6815 3.99951H0V5.99932H39.6815V3.99951Z" fill="#FF4B55"/>
<path d="M0 13.315C0 13.6928 0.306369 13.9992 0.684197 13.9992H39.6815V11.9993H0V13.315Z" fill="#FF4B55"/>
<path d="M39.6815 19.9993H0V21.9992H39.6815V19.9993Z" fill="#FF4B55"/>
<path d="M39.5172 23.9984H0.162598C0.565381 25.1623 1.67026 25.9983 2.971 25.9983H36.7088C38.0096 25.9983 39.1144 25.1623 39.5172 23.9984Z" fill="#FF4B55"/>
<path d="M39.6815 15.9994H0V17.9992H39.6815V15.9994Z" fill="#FF4B55"/>
<path d="M0.684197 13.9991H17.7883C18.1662 13.9991 18.4725 13.6928 18.4725 13.3149V0.684196C18.4725 0.306292 18.1662 0 17.7883 0H2.97185C1.33049 7.7503e-05 0 1.33057 0 2.97193V13.3149C0 13.6928 0.306369 13.9991 0.684197 13.9991Z" fill="#41479B"/>
<path d="M1.92011 1.57048L2.07156 2.02464L2.55029 2.02829C2.61229 2.02883 2.63795 2.10788 2.58811 2.1447L2.203 2.42905L2.34747 2.88547C2.36622 2.94453 2.29887 2.99351 2.24842 2.95739L1.85897 2.67908L1.46951 2.95747C1.41906 2.99359 1.35186 2.9446 1.37046 2.88555L1.51493 2.42913L1.12982 2.14477C1.07998 2.10788 1.10564 2.02883 1.16764 2.02836L1.64637 2.02472L1.79782 1.57055C1.81735 1.51165 1.90043 1.51165 1.92011 1.57048Z" fill="#F5F5F5"/>
<path d="M1.92011 3.94615L2.07156 4.40032L2.55029 4.40396C2.61229 4.4045 2.63795 4.48348 2.58811 4.52037L2.203 4.80481L2.34747 5.26122C2.36622 5.32028 2.29887 5.36926 2.24842 5.33314L1.85897 5.05483L1.46951 5.33322C1.41906 5.36926 1.35186 5.32036 1.37046 5.2613L1.51493 4.80488L1.12982 4.52045C1.07998 4.48356 1.10564 4.40458 1.16764 4.40404L1.64637 4.4004L1.79782 3.94623C1.81735 3.8874 1.90043 3.8874 1.92011 3.94615Z" fill="#F5F5F5"/>
<path d="M1.92011 6.32206L2.07156 6.77623L2.55029 6.77987C2.61229 6.78042 2.63795 6.85939 2.58811 6.89628L2.203 7.18072L2.34747 7.63713C2.36622 7.69619 2.29887 7.74517 2.24842 7.70906L1.85897 7.43074L1.46951 7.70913C1.41906 7.74517 1.35186 7.69635 1.37046 7.63721L1.51493 7.1808L1.12982 6.89636C1.07998 6.85947 1.10564 6.78049 1.16764 6.77995L1.64637 6.77631L1.79782 6.32214C1.81735 6.26324 1.90043 6.26324 1.92011 6.32206Z" fill="#F5F5F5"/>
<path d="M1.92011 8.6978L2.07156 9.15196L2.55029 9.15561C2.61229 9.15615 2.63795 9.2352 2.58811 9.27201L2.203 9.55645L2.34747 10.0129C2.36622 10.0719 2.29887 10.1209 2.24842 10.0848L1.85897 9.80648L1.46951 10.0849C1.41906 10.1209 1.35186 10.072 1.37046 10.0129L1.51493 9.55653L1.12982 9.27209C1.07998 9.23536 1.10564 9.15623 1.16764 9.15568L1.64637 9.15204L1.79782 8.69787C1.81735 8.63897 1.90043 8.63897 1.92011 8.6978Z" fill="#F5F5F5"/>
<path d="M1.92011 11.0736L2.07156 11.5278L2.55029 11.5314C2.61229 11.5319 2.63795 11.6109 2.58811 11.6478L2.203 11.9322L2.34747 12.3887C2.36622 12.4477 2.29887 12.4967 2.24842 12.4606L1.85897 12.1823L1.46951 12.4607C1.41906 12.4967 1.35186 12.4478 1.37046 12.3887L1.51493 11.9323L1.12982 11.6479C1.07998 11.611 1.10564 11.532 1.16764 11.5315L1.64637 11.5278L1.79782 11.0737C1.81735 11.0148 1.90043 11.0148 1.92011 11.0736Z" fill="#F5F5F5"/>
<path d="M3.76484 2.73522L3.91628 3.18939L4.39502 3.19303C4.45702 3.19358 4.48267 3.27263 4.43284 3.30944L4.04773 3.59388L4.19219 4.05029C4.21095 4.10935 4.1436 4.15833 4.09314 4.12222L3.70369 3.84383L3.31424 4.12222C3.26378 4.15826 3.19659 4.10935 3.21519 4.05029L3.35966 3.59388L2.97454 3.30944C2.92471 3.27255 2.95036 3.19358 3.01237 3.19303L3.4911 3.18939L3.64254 2.73522C3.66207 2.67648 3.74523 2.67648 3.76484 2.73522Z" fill="#F5F5F5"/>
<path d="M3.76484 5.11101L3.91628 5.56518L4.39502 5.56882C4.45702 5.56937 4.48267 5.64842 4.43284 5.68523L4.04773 5.96967L4.19219 6.42608C4.21095 6.48514 4.1436 6.53412 4.09314 6.49801L3.70369 6.21962L3.31424 6.49801C3.26378 6.53405 3.19659 6.48522 3.21519 6.42608L3.35966 5.96967L2.97454 5.68523C2.92471 5.6485 2.95036 5.56937 3.01237 5.56882L3.4911 5.56518L3.64254 5.11101C3.66207 5.05219 3.74523 5.05219 3.76484 5.11101Z" fill="#F5F5F5"/>
<path d="M3.76484 7.48687L3.91628 7.94104L4.39502 7.94468C4.45702 7.94522 4.48267 8.0242 4.43284 8.06109L4.04773 8.34552L4.19219 8.80194C4.21095 8.861 4.1436 8.90998 4.09314 8.87386L3.70369 8.59547L3.31424 8.87386C3.26378 8.9099 3.19659 8.861 3.21519 8.80194L3.35966 8.34552L2.97454 8.06109C2.92471 8.0242 2.95036 7.94522 3.01237 7.94468L3.4911 7.94104L3.64254 7.48687C3.66207 7.42804 3.74523 7.42804 3.76484 7.48687Z" fill="#F5F5F5"/>
<path d="M3.76484 9.86254L3.91628 10.3167L4.39502 10.3204C4.45702 10.3209 4.48267 10.3999 4.43284 10.4368L4.04773 10.7212L4.19219 11.1776C4.21095 11.2367 4.1436 11.2857 4.09314 11.2495L3.70369 10.9711L3.31424 11.2495C3.26378 11.2857 3.19659 11.2367 3.21519 11.1776L3.35966 10.7212L2.97454 10.4368C2.92471 10.3999 2.95036 10.3209 3.01237 10.3204L3.4911 10.3167L3.64254 9.86254C3.66207 9.80379 3.74523 9.80379 3.76484 9.86254Z" fill="#F5F5F5"/>
<path d="M5.61006 1.57049L5.7615 2.02465L6.24023 2.0283C6.30224 2.02884 6.32789 2.10789 6.27806 2.14471L5.89294 2.42906L6.03741 2.88548C6.05616 2.94454 5.98881 2.99352 5.93836 2.9574L5.54891 2.67901L5.15945 2.9574C5.109 2.99352 5.0418 2.94454 5.0604 2.88548L5.20487 2.42906L4.81976 2.14471C4.76992 2.10781 4.79558 2.02876 4.85758 2.0283L5.33632 2.02465L5.48776 1.57049C5.50729 1.51166 5.59045 1.51166 5.61006 1.57049Z" fill="#F5F5F5"/>
<path d="M5.61006 3.94616L5.7615 4.40033L6.24023 4.40397C6.30224 4.40451 6.32789 4.48349 6.27806 4.52038L5.89294 4.80482L6.03741 5.26123C6.05616 5.32029 5.98881 5.36927 5.93836 5.33315L5.54891 5.05476L5.15945 5.33315C5.109 5.36919 5.0418 5.32029 5.0604 5.26123L5.20487 4.80482L4.81976 4.52038C4.76992 4.48349 4.79558 4.40451 4.85758 4.40397L5.33632 4.40033L5.48776 3.94616C5.50729 3.88741 5.59045 3.88741 5.61006 3.94616Z" fill="#F5F5F5"/>
<path d="M5.61006 6.32207L5.7615 6.77624L6.24023 6.77988C6.30224 6.78043 6.32789 6.8594 6.27806 6.89629L5.89294 7.18073L6.03741 7.63714C6.05616 7.6962 5.98881 7.74518 5.93836 7.70907L5.54891 7.43068L5.15945 7.70907C5.109 7.74511 5.0418 7.69628 5.0604 7.63714L5.20487 7.18073L4.81976 6.89629C4.76992 6.8594 4.79558 6.78043 4.85758 6.77988L5.33632 6.77624L5.48776 6.32207C5.50729 6.26325 5.59045 6.26325 5.61006 6.32207Z" fill="#F5F5F5"/>
<path d="M5.61006 8.69781L5.7615 9.15197L6.24023 9.15562C6.30224 9.15616 6.32789 9.23521 6.27806 9.27202L5.89294 9.55646L6.03741 10.0129C6.05616 10.0719 5.98881 10.1209 5.93836 10.0848L5.54891 9.80641L5.15945 10.0848C5.109 10.1208 5.0418 10.0719 5.0604 10.0129L5.20487 9.55646L4.81976 9.27202C4.76992 9.23529 4.79558 9.15616 4.85758 9.15562L5.33632 9.15197L5.48776 8.69781C5.50729 8.63898 5.59045 8.63898 5.61006 8.69781Z" fill="#F5F5F5"/>
<path d="M5.61006 11.0736L5.7615 11.5278L6.24023 11.5314C6.30224 11.532 6.32789 11.6109 6.27806 11.6478L5.89294 11.9323L6.03741 12.3887C6.05616 12.4477 5.98881 12.4967 5.93836 12.4606L5.54891 12.1822L5.15945 12.4606C5.109 12.4966 5.0418 12.4477 5.0604 12.3887L5.20487 11.9323L4.81976 11.6478C4.76992 11.6109 4.79558 11.532 4.85758 11.5314L5.33632 11.5278L5.48776 11.0736C5.50729 11.0149 5.59045 11.0149 5.61006 11.0736Z" fill="#F5F5F5"/>
<path d="M7.45136 2.73522L7.60281 3.18939L8.08154 3.19303C8.14354 3.19358 8.1692 3.27263 8.11936 3.30944L7.73425 3.59388L7.87872 4.05029C7.89747 4.10935 7.83012 4.15833 7.77967 4.12222L7.39022 3.84383L7.00076 4.12222C6.95031 4.15826 6.88311 4.10935 6.90171 4.05029L7.04618 3.59388L6.66107 3.30944C6.61123 3.27255 6.63689 3.19358 6.69889 3.19303L7.17762 3.18939L7.32907 2.73522C7.34852 2.67648 7.43176 2.67648 7.45136 2.73522Z" fill="#F5F5F5"/>
<path d="M7.45136 5.11101L7.60281 5.56518L8.08154 5.56882C8.14354 5.56937 8.1692 5.64842 8.11936 5.68523L7.73425 5.96967L7.87872 6.42608C7.89747 6.48514 7.83012 6.53412 7.77967 6.49801L7.39022 6.21962L7.00076 6.49801C6.95031 6.53405 6.88311 6.48522 6.90171 6.42608L7.04618 5.96967L6.66107 5.68523C6.61123 5.6485 6.63689 5.56937 6.69889 5.56882L7.17762 5.56518L7.32907 5.11101C7.34852 5.05219 7.43176 5.05219 7.45136 5.11101Z" fill="#F5F5F5"/>
<path d="M7.45136 7.48687L7.60281 7.94104L8.08154 7.94468C8.14354 7.94522 8.1692 8.0242 8.11936 8.06109L7.73425 8.34552L7.87872 8.80194C7.89747 8.861 7.83012 8.90998 7.77967 8.87386L7.39022 8.59547L7.00076 8.87386C6.95031 8.9099 6.88311 8.861 6.90171 8.80194L7.04618 8.34552L6.66107 8.06109C6.61123 8.0242 6.63689 7.94522 6.69889 7.94468L7.17762 7.94104L7.32907 7.48687C7.34852 7.42804 7.43176 7.42804 7.45136 7.48687Z" fill="#F5F5F5"/>
<path d="M7.45136 9.86254L7.60281 10.3167L8.08154 10.3204C8.14354 10.3209 8.1692 10.3999 8.11936 10.4368L7.73425 10.7212L7.87872 11.1776C7.89747 11.2367 7.83012 11.2857 7.77967 11.2495L7.39022 10.9711L7.00076 11.2495C6.95031 11.2857 6.88311 11.2367 6.90171 11.1776L7.04618 10.7212L6.66107 10.4368C6.61123 10.3999 6.63689 10.3209 6.69889 10.3204L7.17762 10.3167L7.32907 9.86254C7.34852 9.80379 7.43176 9.80379 7.45136 9.86254Z" fill="#F5F5F5"/>
<path d="M9.29666 1.57048L9.4481 2.02464L9.92683 2.02829C9.98884 2.02883 10.0145 2.10788 9.96466 2.1447L9.57954 2.42905L9.72401 2.88547C9.74276 2.94453 9.67541 2.99351 9.62496 2.95739L9.23543 2.67908L8.84598 2.95747C8.79552 2.99359 8.72833 2.9446 8.74693 2.88555L8.89139 2.42913L8.50628 2.14477C8.45645 2.10788 8.4821 2.02883 8.5441 2.02836L9.02284 2.02472L9.17428 1.57055C9.19389 1.51165 9.27705 1.51165 9.29666 1.57048Z" fill="#F5F5F5"/>
<path d="M9.29666 3.94616L9.4481 4.40033L9.92683 4.40397C9.98884 4.40451 10.0145 4.48349 9.96466 4.52038L9.57954 4.80482L9.72401 5.26123C9.74276 5.32029 9.67541 5.36927 9.62496 5.33315L9.23543 5.05476L8.84598 5.33315C8.79552 5.36919 8.72833 5.32029 8.74693 5.26123L8.89139 4.80482L8.50628 4.52038C8.45645 4.48349 8.4821 4.40451 8.5441 4.40397L9.02284 4.40033L9.17428 3.94616C9.19389 3.88741 9.27705 3.88741 9.29666 3.94616Z" fill="#F5F5F5"/>
<path d="M9.29666 6.32208L9.4481 6.77625L9.92683 6.77989C9.98884 6.78044 10.0145 6.85941 9.96466 6.8963L9.57954 7.18074L9.72401 7.63715C9.74276 7.69621 9.67541 7.74519 9.62496 7.70908L9.23543 7.43061L8.84598 7.709C8.79552 7.74504 8.72833 7.69613 8.74693 7.63708L8.89139 7.18066L8.50628 6.89622C8.45645 6.85933 8.4821 6.78036 8.5441 6.77982L9.02284 6.77617L9.17428 6.32201C9.19389 6.26326 9.27705 6.26326 9.29666 6.32208Z" fill="#F5F5F5"/>
<path d="M9.29666 8.69781L9.4481 9.15197L9.92683 9.15562C9.98884 9.15616 10.0145 9.23521 9.96466 9.27202L9.57954 9.55646L9.72401 10.0129C9.74276 10.0719 9.67541 10.1209 9.62496 10.0848L9.23543 9.80641L8.84598 10.0848C8.79552 10.1208 8.72833 10.0719 8.74693 10.0129L8.89139 9.55646L8.50628 9.27202C8.45645 9.23529 8.4821 9.15616 8.5441 9.15562L9.02284 9.15197L9.17428 8.69781C9.19389 8.63898 9.27705 8.63898 9.29666 8.69781Z" fill="#F5F5F5"/>
<path d="M9.29666 11.0736L9.4481 11.5278L9.92683 11.5314C9.98884 11.532 10.0145 11.6109 9.96466 11.6478L9.57954 11.9323L9.72401 12.3887C9.74276 12.4477 9.67541 12.4967 9.62496 12.4606L9.23543 12.1822L8.84598 12.4606C8.79552 12.4966 8.72833 12.4477 8.74693 12.3887L8.89139 11.9323L8.50628 11.6478C8.45645 11.6109 8.4821 11.532 8.5441 11.5314L9.02284 11.5278L9.17428 11.0736C9.19389 11.0149 9.27705 11.0149 9.29666 11.0736Z" fill="#F5F5F5"/>
<path d="M11.1418 2.73522L11.2932 3.18939L11.772 3.19303C11.834 3.19358 11.8596 3.27263 11.8098 3.30944L11.4247 3.59388L11.5691 4.05029C11.5879 4.10935 11.5206 4.15833 11.4701 4.12222L11.0806 3.84383L10.6912 4.12222C10.6407 4.15826 10.5735 4.10935 10.5921 4.05029L10.7366 3.59388L10.3515 3.30944C10.3017 3.27255 10.3273 3.19358 10.3893 3.19303L10.8681 3.18939L11.0195 2.73522C11.0391 2.67648 11.1222 2.67648 11.1418 2.73522Z" fill="#F5F5F5"/>
<path d="M11.1418 5.11101L11.2932 5.56518L11.772 5.56882C11.834 5.56937 11.8596 5.64842 11.8098 5.68523L11.4247 5.96967L11.5691 6.42608C11.5879 6.48514 11.5206 6.53412 11.4701 6.49801L11.0806 6.21962L10.6912 6.49801C10.6407 6.53405 10.5735 6.48522 10.5921 6.42608L10.7366 5.96967L10.3515 5.68523C10.3017 5.6485 10.3273 5.56937 10.3893 5.56882L10.8681 5.56518L11.0195 5.11101C11.0391 5.05219 11.1222 5.05219 11.1418 5.11101Z" fill="#F5F5F5"/>
<path d="M11.1418 7.48687L11.2932 7.94104L11.772 7.94468C11.834 7.94522 11.8596 8.0242 11.8098 8.06109L11.4247 8.34552L11.5691 8.80194C11.5879 8.861 11.5206 8.90998 11.4701 8.87386L11.0806 8.59547L10.6912 8.87386C10.6407 8.9099 10.5735 8.861 10.5921 8.80194L10.7366 8.34552L10.3515 8.06109C10.3017 8.0242 10.3273 7.94522 10.3893 7.94468L10.8681 7.94104L11.0195 7.48687C11.0391 7.42804 11.1222 7.42804 11.1418 7.48687Z" fill="#F5F5F5"/>
<path d="M11.1418 9.86254L11.2932 10.3167L11.772 10.3204C11.834 10.3209 11.8596 10.3999 11.8098 10.4368L11.4247 10.7212L11.5691 11.1776C11.5879 11.2367 11.5206 11.2857 11.4701 11.2495L11.0806 10.9711L10.6912 11.2495C10.6407 11.2857 10.5735 11.2367 10.5921 11.1776L10.7366 10.7212L10.3515 10.4368C10.3017 10.3999 10.3273 10.3209 10.3893 10.3204L10.8681 10.3167L11.0195 9.86254C11.0391 9.80379 11.1222 9.80379 11.1418 9.86254Z" fill="#F5F5F5"/>
<path d="M12.9865 1.57049L13.138 2.02465L13.6167 2.0283C13.6787 2.02884 13.7044 2.10789 13.6545 2.14471L13.2694 2.42906L13.4139 2.88548C13.4326 2.94454 13.3653 2.99352 13.3148 2.9574L12.9254 2.67901L12.5359 2.9574C12.4855 2.99352 12.4183 2.94454 12.4369 2.88548L12.5813 2.42906L12.1962 2.14471C12.1464 2.10781 12.172 2.02876 12.234 2.0283L12.7128 2.02465L12.8642 1.57049C12.8837 1.51166 12.9669 1.51166 12.9865 1.57049Z" fill="#F5F5F5"/>
<path d="M12.9865 3.94616L13.138 4.40033L13.6167 4.40397C13.6787 4.40451 13.7044 4.48349 13.6545 4.52038L13.2694 4.80482L13.4139 5.26123C13.4326 5.32029 13.3653 5.36927 13.3148 5.33315L12.9254 5.05476L12.5359 5.33315C12.4855 5.36919 12.4183 5.32029 12.4369 5.26123L12.5813 4.80482L12.1962 4.52038C12.1464 4.48349 12.172 4.40451 12.234 4.40397L12.7128 4.40033L12.8642 3.94616C12.8837 3.88741 12.9669 3.88741 12.9865 3.94616Z" fill="#F5F5F5"/>
<path d="M12.9865 6.32207L13.138 6.77624L13.6167 6.77988C13.6787 6.78043 13.7044 6.8594 13.6545 6.89629L13.2694 7.18073L13.4139 7.63714C13.4326 7.6962 13.3653 7.74518 13.3148 7.70907L12.9254 7.43068L12.5359 7.70907C12.4855 7.74511 12.4183 7.69628 12.4369 7.63714L12.5813 7.18073L12.1962 6.89629C12.1464 6.8594 12.172 6.78043 12.234 6.77988L12.7128 6.77624L12.8642 6.32207C12.8837 6.26325 12.9669 6.26325 12.9865 6.32207Z" fill="#F5F5F5"/>
<path d="M12.9865 8.69781L13.138 9.15197L13.6167 9.15562C13.6787 9.15616 13.7044 9.23521 13.6545 9.27202L13.2694 9.55646L13.4139 10.0129C13.4326 10.0719 13.3653 10.1209 13.3148 10.0848L12.9254 9.80641L12.5359 10.0848C12.4855 10.1208 12.4183 10.0719 12.4369 10.0129L12.5813 9.55646L12.1962 9.27202C12.1464 9.23529 12.172 9.15616 12.234 9.15562L12.7128 9.15197L12.8642 8.69781C12.8837 8.63898 12.9669 8.63898 12.9865 8.69781Z" fill="#F5F5F5"/>
<path d="M12.9865 11.0736L13.138 11.5278L13.6167 11.5314C13.6787 11.532 13.7044 11.6109 13.6545 11.6478L13.2694 11.9323L13.4139 12.3887C13.4326 12.4477 13.3653 12.4967 13.3148 12.4606L12.9254 12.1822L12.5359 12.4606C12.4855 12.4966 12.4183 12.4477 12.4369 12.3887L12.5813 11.9323L12.1962 11.6478C12.1464 11.6109 12.172 11.532 12.234 11.5314L12.7128 11.5278L12.8642 11.0736C12.8837 11.0149 12.9669 11.0149 12.9865 11.0736Z" fill="#F5F5F5"/>
<path d="M14.8283 2.73522L14.9798 3.18939L15.4585 3.19303C15.5205 3.19358 15.5462 3.27263 15.4963 3.30944L15.1112 3.59388L15.2557 4.05029C15.2744 4.10935 15.2071 4.15833 15.1566 4.12222L14.7672 3.84383L14.3777 4.12222C14.3273 4.15826 14.2601 4.10935 14.2787 4.05029L14.4231 3.59388L14.038 3.30944C13.9882 3.27255 14.0138 3.19358 14.0758 3.19303L14.5546 3.18939L14.706 2.73522C14.7255 2.67648 14.8087 2.67648 14.8283 2.73522Z" fill="#F5F5F5"/>
<path d="M14.8283 5.11101L14.9798 5.56518L15.4585 5.56882C15.5205 5.56937 15.5462 5.64842 15.4963 5.68523L15.1112 5.96967L15.2557 6.42608C15.2744 6.48514 15.2071 6.53412 15.1566 6.49801L14.7672 6.21962L14.3777 6.49801C14.3273 6.53405 14.2601 6.48522 14.2787 6.42608L14.4231 5.96967L14.038 5.68523C13.9882 5.6485 14.0138 5.56937 14.0758 5.56882L14.5546 5.56518L14.706 5.11101C14.7255 5.05219 14.8087 5.05219 14.8283 5.11101Z" fill="#F5F5F5"/>
<path d="M14.8283 7.48687L14.9798 7.94104L15.4585 7.94468C15.5205 7.94522 15.5462 8.0242 15.4963 8.06109L15.1112 8.34552L15.2557 8.80194C15.2744 8.861 15.2071 8.90998 15.1566 8.87386L14.7672 8.59547L14.3777 8.87386C14.3273 8.9099 14.2601 8.861 14.2787 8.80194L14.4231 8.34552L14.038 8.06109C13.9882 8.0242 14.0138 7.94522 14.0758 7.94468L14.5546 7.94104L14.706 7.48687C14.7255 7.42804 14.8087 7.42804 14.8283 7.48687Z" fill="#F5F5F5"/>
<path d="M14.8283 9.86254L14.9798 10.3167L15.4585 10.3204C15.5205 10.3209 15.5462 10.3999 15.4963 10.4368L15.1112 10.7212L15.2557 11.1776C15.2744 11.2367 15.2071 11.2857 15.1566 11.2495L14.7672 10.9711L14.3777 11.2495C14.3273 11.2857 14.2601 11.2367 14.2787 11.1776L14.4231 10.7212L14.038 10.4368C13.9882 10.3999 14.0138 10.3209 14.0758 10.3204L14.5546 10.3167L14.706 9.86254C14.7255 9.80379 14.8087 9.80379 14.8283 9.86254Z" fill="#F5F5F5"/>
<path d="M16.673 1.57049L16.8245 2.02465L17.3032 2.0283C17.3652 2.02884 17.3909 2.10789 17.341 2.14471L16.9559 2.42906L17.1004 2.88548C17.1192 2.94454 17.0518 2.99352 17.0013 2.9574L16.6119 2.67901L16.2224 2.9574C16.172 2.99352 16.1048 2.94454 16.1234 2.88548L16.2679 2.42906L15.8827 2.14471C15.8329 2.10781 15.8586 2.02876 15.9206 2.0283L16.3993 2.02465L16.5507 1.57049C16.5703 1.51166 16.6534 1.51166 16.673 1.57049Z" fill="#F5F5F5"/>
<path d="M16.673 3.94616L16.8245 4.40033L17.3032 4.40397C17.3652 4.40451 17.3909 4.48349 17.341 4.52038L16.9559 4.80482L17.1004 5.26123C17.1192 5.32029 17.0518 5.36927 17.0013 5.33315L16.6119 5.05476L16.2224 5.33315C16.172 5.36919 16.1048 5.32029 16.1234 5.26123L16.2679 4.80482L15.8827 4.52038C15.8329 4.48349 15.8586 4.40451 15.9206 4.40397L16.3993 4.40033L16.5507 3.94616C16.5703 3.88741 16.6534 3.88741 16.673 3.94616Z" fill="#F5F5F5"/>
<path d="M16.673 6.32207L16.8245 6.77624L17.3032 6.77988C17.3652 6.78043 17.3909 6.8594 17.341 6.89629L16.9559 7.18073L17.1004 7.63714C17.1192 7.6962 17.0518 7.74518 17.0013 7.70907L16.6119 7.43068L16.2224 7.70907C16.172 7.74511 16.1048 7.69628 16.1234 7.63714L16.2679 7.18073L15.8827 6.89629C15.8329 6.8594 15.8586 6.78043 15.9206 6.77988L16.3993 6.77624L16.5507 6.32207C16.5703 6.26325 16.6534 6.26325 16.673 6.32207Z" fill="#F5F5F5"/>
<path d="M16.673 8.69781L16.8245 9.15197L17.3032 9.15562C17.3652 9.15616 17.3909 9.23521 17.341 9.27202L16.9559 9.55646L17.1004 10.0129C17.1192 10.0719 17.0518 10.1209 17.0013 10.0848L16.6119 9.80641L16.2224 10.0848C16.172 10.1208 16.1048 10.0719 16.1234 10.0129L16.2679 9.55646L15.8827 9.27202C15.8329 9.23529 15.8586 9.15616 15.9206 9.15562L16.3993 9.15197L16.5507 8.69781C16.5703 8.63898 16.6534 8.63898 16.673 8.69781Z" fill="#F5F5F5"/>
<path d="M16.673 11.0736L16.8245 11.5278L17.3032 11.5314C17.3652 11.532 17.3909 11.6109 17.341 11.6478L16.9559 11.9323L17.1004 12.3887C17.1192 12.4477 17.0518 12.4967 17.0013 12.4606L16.6119 12.1822L16.2224 12.4606C16.172 12.4966 16.1048 12.4477 16.1234 12.3887L16.2679 11.9323L15.8827 11.6478C15.8329 11.6109 15.8586 11.532 15.9206 11.5314L16.3993 11.5278L16.5507 11.0736C16.5703 11.0149 16.6534 11.0149 16.673 11.0736Z" fill="#F5F5F5"/>
</svg>
