<svg width="19" height="20" viewBox="0 0 19 20" fill="none" xmlns="http://www.w3.org/2000/svg">
<path d="M16.3062 0H2.56174C1.14919 0 0 1.21814 0 2.71545V17.2846C0 18.7819 1.14919 20 2.56174 20H16.3062C17.7187 20 18.8679 18.7819 18.8679 17.2846V2.71545C18.8679 1.21814 17.7187 0 16.3062 0ZM9.43396 14.8859C7.10722 14.8859 5.21431 12.8794 5.21431 10.4131C5.21431 7.94683 7.10729 5.94028 9.43396 5.94028C11.7606 5.94028 13.6536 7.94683 13.6536 10.4131C13.6536 12.8794 11.7607 14.8859 9.43396 14.8859ZM17.2705 7.11138H13.458C12.4956 5.89014 11.049 5.11186 9.43396 5.11186C7.81893 5.11186 6.37228 5.89021 5.40989 7.11138H1.59746V3.22786C1.59746 2.24076 2.35511 1.43772 3.28634 1.43772H15.5817C16.5129 1.43772 17.2705 2.24076 17.2705 3.22786V7.11138H17.2705Z" fill="#EBF5FE"/>
<path d="M9.43388 7.5376C7.93817 7.5376 6.72119 8.82753 6.72119 10.413C6.72119 11.9985 7.93811 13.2884 9.43388 13.2884C10.9297 13.2884 12.1466 11.9985 12.1466 10.413C12.1466 8.82753 10.9296 7.5376 9.43388 7.5376Z" fill="#EBF5FE"/>
<path d="M15.1907 2.58569H13.5581C13.1849 2.58569 12.8813 2.90756 12.8813 3.30307V5.03362C12.8813 5.42914 13.1849 5.75093 13.5581 5.75093H15.1907C15.5638 5.75093 15.8674 5.42921 15.8674 5.03362V3.30307C15.8674 2.90749 15.5638 2.58569 15.1907 2.58569Z" fill="#EBF5FE"/>
</svg>
