<svg width="163" height="80" viewBox="0 0 163 80" fill="none" xmlns="http://www.w3.org/2000/svg">
<path d="M48.0249 36.7914V22.8585H59.961C61.06 22.8585 61.8547 23.0727 62.3453 23.5012C62.61 23.7699 62.8133 24.0929 62.9412 24.4477C63.0691 24.8026 63.1185 25.181 63.0861 25.5568V27.2591C63.0992 27.5544 63.0506 27.8491 62.9433 28.1245C62.836 28.3999 62.6724 28.6499 62.463 28.8585C61.9686 29.2947 61.3447 29.5567 60.6871 29.6042C61.3856 29.6595 62.0414 29.9622 62.5366 30.4578C62.9841 30.9557 63.2183 31.6092 63.1891 32.2779V34.0588C63.2148 34.4603 63.1345 34.8616 62.9563 35.2224C62.7781 35.5832 62.5082 35.8907 62.1736 36.1143C61.4966 36.5657 60.4696 36.7914 59.0927 36.7914H48.0249ZM58.6021 25.13H51.2138V28.4513H58.6021C59.0046 28.485 59.4087 28.4069 59.7697 28.2256C59.8845 28.133 59.9743 28.0131 60.0309 27.8768C60.0875 27.7405 60.109 27.5923 60.0935 27.4456V26.1259C60.1077 25.9807 60.0856 25.8343 60.0291 25.6998C59.9725 25.5653 59.8834 25.447 59.7697 25.3556C59.411 25.1675 59.0054 25.0874 58.6021 25.1251V25.13ZM58.6021 30.7423H51.2138V34.2844H58.6021C59.0362 34.3298 59.4734 34.2334 59.8482 34.0097C59.9697 33.8792 60.0616 33.7239 60.1175 33.5545C60.1734 33.3852 60.192 33.2057 60.172 33.0285V31.9737C60.194 31.7964 60.1764 31.6164 60.1204 31.4467C60.0644 31.2771 59.9714 31.1219 59.8482 30.9925C59.471 30.776 59.0341 30.6865 58.6021 30.7374V30.7423Z" fill="#EBF5FE"/>
<path d="M66.1128 36.7914L73.9917 22.8585H77.1119L85.0987 36.7914H81.4389L79.766 33.7448H70.9353L69.3409 36.7914H66.1128ZM72.3433 31.228H78.4414L75.439 25.5568L72.3433 31.228Z" fill="#EBF5FE"/>
<path d="M88.9014 36.7914V22.8585H92.1442V34.1422H102.594V36.7914H88.9014Z" fill="#EBF5FE"/>
<path d="M106.661 36.7914V22.8585H109.928V28.6671L117.65 22.8585H122.34L113.117 29.4325L123.474 36.7914H118.269L109.928 30.6639V36.7914H106.661Z" fill="#EBF5FE"/>
<path d="M123.783 36.7914L131.662 22.8585H134.787L142.764 36.7914H139.133L137.46 33.7448H128.63L127.011 36.7914H123.783ZM130.008 31.2231H136.106L133.114 25.5568L130.008 31.2231Z" fill="#EBF5FE"/>
<path d="M146.552 36.7914V22.8585H148.764L158.576 31.0661C158.91 31.336 159.204 31.596 159.459 31.8364C159.707 32.0703 159.939 32.3193 160.156 32.5821C160.1 31.8004 160.066 31.246 160.053 30.919C160.04 30.5919 160.03 30.3417 160.023 30.1684V22.8585H162.938V36.7914H160.72L150.486 28.1815C150.241 27.9607 150.03 27.7645 149.844 27.5878C149.657 27.4112 149.486 27.2297 149.329 27.0482C149.373 27.4799 149.407 27.8822 149.427 28.2649C149.446 28.6475 149.461 28.9811 149.461 29.246V36.7914H146.552Z" fill="#EBF5FE"/>
<path d="M48.0249 57.3033V43.3802H59.9365C61.0403 43.3802 61.8449 43.5912 62.3404 44.018C62.608 44.2859 62.8135 44.6093 62.9423 44.9654C63.0712 45.3214 63.1203 45.7014 63.0861 46.0785V49.1889C63.1202 49.5645 63.071 49.943 62.9421 50.2974C62.8132 50.6519 62.6078 50.9735 62.3404 51.2395C61.8498 51.6664 61.0403 51.8773 59.9365 51.8773H51.2138V57.3033H48.0249ZM58.4991 45.7891H51.2138V49.4783H58.4991C58.8996 49.5196 59.3029 49.4338 59.652 49.233C59.7659 49.1233 59.8531 48.9887 59.9067 48.8398C59.9603 48.6909 59.9789 48.5317 59.961 48.3745V46.9027C59.9781 46.747 59.9591 46.5895 59.9055 46.4423C59.8519 46.2951 59.7652 46.1622 59.652 46.054C59.3041 45.8492 58.9015 45.7567 58.4991 45.7891Z" fill="#EBF5FE"/>
<path d="M67.1147 46.6721C67.1147 45.4064 67.3519 44.5413 67.8261 44.0769C68.3003 43.6125 69.2128 43.3802 70.5636 43.3802H80.817C82.171 43.3802 83.0835 43.6125 83.5545 44.0769C84.0255 44.5413 84.2626 45.4064 84.2659 46.6721V54.031C84.2659 55.3066 84.0304 56.17 83.5545 56.6312C83.0786 57.0923 82.171 57.3229 80.817 57.3229H70.5636C69.2161 57.3229 68.3036 57.0923 67.8261 56.6312C67.3355 56.17 67.1147 55.3066 67.1147 54.031V46.6721ZM70.3576 54.6835H81.0378V45.8528H70.3576V54.6835Z" fill="#EBF5FE"/>
<path d="M93.2777 57.3033L87.9155 43.3802H91.2516L94.7838 52.7015L98.4829 43.3802H100.749L104.517 52.7015L107.892 43.3802H110.792L105.395 57.3033H103.207L99.3758 47.6729L95.4854 57.3033H93.2777Z" fill="#EBF5FE"/>
<path d="M114.721 57.3033V43.3802H128.978V45.7498H117.964V48.8602H124.396V51.2297H117.964V54.6639H129.11V57.2836L114.721 57.3033Z" fill="#EBF5FE"/>
<path d="M134.423 57.3033V43.3802H146.33C147.439 43.3802 148.238 43.5912 148.739 44.018C149.006 44.2862 149.211 44.6097 149.339 44.9658C149.467 45.3219 149.515 45.7018 149.48 46.0785V49.3459C149.514 49.7218 149.466 50.1009 149.338 50.4561C149.21 50.8113 149.005 51.1341 148.739 51.4014C148.248 51.8332 147.439 52.049 146.33 52.049H144.515L150.942 57.3033H146.291L140.673 52.049H137.607V57.3033H134.423ZM144.897 45.7891H137.607V49.6647H144.893C145.293 49.703 145.695 49.6174 146.045 49.4194C146.159 49.3085 146.246 49.1731 146.3 49.0234C146.353 48.8738 146.372 48.714 146.355 48.556V46.8831C146.372 46.7274 146.353 46.5698 146.299 46.4227C146.245 46.2755 146.159 46.1426 146.045 46.0344C145.695 45.8364 145.293 45.7508 144.893 45.7891H144.897Z" fill="#EBF5FE"/>
<path d="M4.54443 26.1309L30.4183 0.26686C30.5619 0.120803 30.7514 0.0285669 30.9549 0.00562117C31.1585 -0.0173246 31.3637 0.030415 31.5363 0.140834C31.7088 0.251253 31.8381 0.417636 31.9025 0.612082C31.967 0.806528 31.9626 1.01721 31.8901 1.2088L17.4225 40.0785L4.54443 26.1309Z" fill="url(#paint0_linear)"/>
<path d="M30.4673 53.8691L4.60327 79.7331C4.45965 79.8792 4.27018 79.9714 4.06663 79.9944C3.86308 80.0173 3.65783 79.9696 3.4853 79.8591C3.31277 79.7487 3.18345 79.5823 3.11903 79.3879C3.05461 79.1935 3.05901 78.9828 3.13149 78.7912L17.5844 39.9215L30.4673 53.8691Z" fill="url(#paint1_linear)"/>
<path d="M33.5377 44.4742L20.3947 31.3263C18.2408 29.1587 16.713 26.4491 15.9729 23.4843C15.2327 20.5196 15.3079 17.4098 16.1903 14.4843L9.87147 20.8031L1.31063 29.3639C0.895135 29.779 0.565524 30.2719 0.340638 30.8144C0.115752 31.357 0 31.9385 0 32.5258C0 33.1131 0.115752 33.6946 0.340638 34.2372C0.565524 34.7797 0.895135 35.2726 1.31063 35.6877L14.4536 48.8307C16.6063 51 18.1322 53.7111 18.8697 56.6769C19.6073 59.6426 19.529 62.7527 18.6433 65.6776L24.9817 59.3588L33.5377 50.8028C33.9539 50.3877 34.2841 49.8945 34.5095 49.3515C34.7348 48.8085 34.8508 48.2264 34.8508 47.6385C34.8508 47.0506 34.7348 46.4685 34.5095 45.9255C34.2841 45.3826 33.9539 44.8894 33.5377 44.4742Z" fill="url(#paint2_linear)"/>
<defs>
<linearGradient id="paint0_linear" x1="7.95405" y1="36.7473" x2="27.1068" y2="13.7385" gradientUnits="userSpaceOnUse">
<stop stop-color="#06172A"/>
<stop offset="1" stop-color="#13387E"/>
</linearGradient>
<linearGradient id="paint1_linear" x1="3.06771" y1="59.9622" x2="30.4673" y2="59.9622" gradientUnits="userSpaceOnUse">
<stop stop-color="#13387E"/>
<stop offset="1" stop-color="#06172A"/>
</linearGradient>
<linearGradient id="paint2_linear" x1="11.304" y1="28.6918" x2="37.2662" y2="77.0152" gradientUnits="userSpaceOnUse">
<stop stop-color="#1553A2"/>
<stop offset="1" stop-color="#0ECDFD"/>
</linearGradient>
</defs>
</svg>
