<svg width="20" height="20" viewBox="0 0 20 20" fill="none" xmlns="http://www.w3.org/2000/svg">
<path d="M13.002 11C13.005 11 13.008 11 13.011 11C15.8313 11 18.3503 11.6973 19.43 12.777C19.8087 13.1557 20.0004 13.566 20 13.9967C19.999 15.6787 16.924 16.998 12.9993 17C12.9963 17 12.9933 17 12.9903 17C10.1703 17 7.65134 16.3027 6.57165 15.223C6.19297 14.8443 6.0013 14.434 6.00165 14.0033C6.00231 12.3213 9.07732 11.002 13.002 11ZM7.04298 14.7513C7.98966 15.698 10.3786 16.3333 12.9906 16.3333C12.9933 16.3333 12.9967 16.3333 12.9993 16.3333C16.7313 16.3313 19.3327 15.1 19.3333 13.9963C19.3333 13.749 19.2073 13.4973 18.9587 13.2487C18.012 12.302 15.623 11.6667 13.011 11.6667C13.0083 11.6667 13.0053 11.6667 13.0023 11.6667C9.27033 11.6687 6.66899 12.9 6.66833 14.0037C6.66798 14.251 6.7943 14.5027 7.04298 14.7513Z" fill="white"/>
<path d="M6.00124 14.0037C6.00124 13.8193 6.15057 13.6704 6.33456 13.6704C6.5189 13.6704 6.66788 13.8197 6.66788 14.0037C6.66753 14.251 6.7939 14.5027 7.04253 14.7513C7.98921 15.698 10.3782 16.3333 12.9902 16.3333C12.9929 16.3333 12.9962 16.3333 12.9989 16.3333C16.7309 16.3313 19.3322 15.1 19.3329 13.9967C19.3329 13.8123 19.4822 13.6633 19.6662 13.6633C19.8505 13.6633 19.9995 13.8127 19.9995 13.9967L19.9978 16.9967C19.9969 18.6787 16.9219 19.998 12.9976 20C12.9943 20 12.9913 20 12.9882 20C9.13558 20 6.08858 18.711 6.00358 17.056C6.00093 17.0387 5.9996 17.0213 5.9996 17.0037L6.00124 14.0037ZM6.66854 16.9977C6.68855 18.103 9.2882 19.3333 12.9882 19.3333C12.9912 19.3333 12.9942 19.3333 12.9972 19.3333C16.7292 19.3314 19.3305 18.1 19.3312 16.9963L19.3322 15.2963C18.2209 16.311 15.8312 16.9987 12.9989 17C12.9959 17 12.9932 17 12.9899 17C10.2502 17 7.79487 16.342 6.66722 15.3143L6.6662 16.9633C6.66757 16.9747 6.66854 16.986 6.66854 16.9977Z" fill="white"/>
<path d="M6.33329 13.6666H19.6667C19.8507 13.6666 20 13.816 20 13.9999C20 14.1839 19.8507 14.3333 19.6667 14.3333H6.33333C6.14934 14.3333 6.00001 14.1839 6.00001 13.9999C6.00001 13.816 6.1493 13.6666 6.33329 13.6666Z" fill="white"/>
<path d="M12.8783 2.8787C14.048 1.70905 15.9513 1.70905 17.121 2.8787C17.2513 3.00906 17.2513 3.21972 17.121 3.35003C16.991 3.48038 16.7797 3.48038 16.6497 3.35003C15.74 2.44038 14.2597 2.44038 13.35 3.35003C13.285 3.41503 13.1996 3.44769 13.1143 3.44769C13.029 3.44769 12.9437 3.41535 12.8783 3.35003C12.748 3.21968 12.748 3.00902 12.8783 2.8787Z" fill="white"/>
<path d="M6.49812 6.39696C6.62847 6.26661 6.83945 6.26661 6.96945 6.39696L11.7392 11.167C11.8695 11.2973 11.8695 11.508 11.7392 11.6383C11.6742 11.7033 11.5888 11.736 11.5035 11.736C11.4181 11.736 11.3328 11.7033 11.2678 11.6383L6.49812 6.86829C6.36781 6.73797 6.36781 6.52731 6.49812 6.39696Z" fill="white"/>
<path d="M1.47164 11.423L11.423 1.47168C12.372 0.522657 13.6337 0 14.9757 0C16.3176 0 17.5793 0.522657 18.5283 1.47168C19.4773 2.42036 20 3.68235 20 5.02435C20 6.36634 19.4773 7.62803 18.5283 8.57701L15.3916 11.7137C15.318 11.7877 15.2146 11.8227 15.1106 11.8083C14.4213 11.714 13.703 11.658 13.0023 11.6667C9.27029 11.6687 6.66895 12.9 6.66794 14.003L6.66626 16.9627C6.66759 16.974 6.6686 16.9853 6.6686 16.997C6.67727 17.471 7.17095 17.9797 8.02329 18.393C8.12728 18.4437 8.19794 18.544 8.20962 18.659C8.2213 18.774 8.17294 18.887 8.0813 18.9573C7.17798 19.6527 6.0993 19.9943 5.02461 19.9943C3.73063 19.9943 2.44226 19.499 1.4716 18.5283C0.52261 17.5797 -4.76837e-05 16.3177 -4.76837e-05 14.9757C-4.76837e-05 13.6337 0.52261 12.372 1.47164 11.423ZM1.94328 18.057C3.35863 19.4724 5.55293 19.7224 7.23931 18.7244C6.45829 18.2431 6.03465 17.6734 6.00395 17.055C6.00129 17.038 5.99997 17.0207 5.99997 17.0034L6.00165 14.0034C6.00231 12.3214 9.07732 11.002 13.002 11C13.0044 11 13.0067 11 13.009 11C13.6903 11 14.3714 11.0424 15.0364 11.1264L18.057 8.10568C18.88 7.28267 19.3334 6.18833 19.3334 5.02435C19.3334 3.86036 18.88 2.76602 18.057 1.94301C17.234 1.12 16.1396 0.666681 14.9757 0.666681C13.8117 0.666681 12.7173 1.12 11.8943 1.94301L1.94296 11.8944C1.11996 12.7174 0.666634 13.8117 0.666634 14.9757C0.666634 16.1397 1.11996 17.234 1.94328 18.057Z" fill="white"/>
</svg>
