<svg width="27" height="27" viewBox="0 0 27 27" fill="none" xmlns="http://www.w3.org/2000/svg">
<path d="M7.18506 12.5367L11.9275 17.6871C12.1012 17.8759 12.3443 17.9855 12.6006 17.9908C12.6075 17.9911 12.6141 17.9911 12.6207 17.9911C12.8698 17.9911 13.1094 17.8922 13.2859 17.7163L25.2834 5.75024" stroke="white" stroke-linecap="round"/>
<path d="M13.5 1.5C13.7761 1.5 14 1.27614 14 1C14 0.723858 13.7761 0.5 13.5 0.5V1.5ZM26.5 13.5C26.5 13.2239 26.2761 13 26 13C25.7239 13 25.5 13.2239 25.5 13.5H26.5ZM13.5 0.5C6.33128 0.5 0.5 6.33128 0.5 13.5H1.5C1.5 6.88356 6.88356 1.5 13.5 1.5V0.5ZM0.5 13.5C0.5 20.6684 6.33127 26.5 13.5 26.5V25.5C6.88357 25.5 1.5 20.1161 1.5 13.5H0.5ZM13.5 26.5C20.6684 26.5 26.5 20.6684 26.5 13.5H25.5C25.5 20.1161 20.1161 25.5 13.5 25.5V26.5Z" fill="white"/>
</svg>
