<svg width="18" height="25" viewBox="0 0 18 25" fill="none" xmlns="http://www.w3.org/2000/svg">
<path d="M15.8813 4.17344V1.25H17.2623C17.6076 1.25 17.8873 0.970313 17.8873 0.625C17.8873 0.279687 17.6076 0 17.2623 0H0.625C0.279687 0 0 0.279687 0 0.625C0 0.970313 0.279687 1.25 0.625 1.25H2.00625V4.17344C2.01523 5.96641 2.74629 7.68008 4.03379 8.92773L8.03125 12.7926L4.20996 16.3887C2.88203 17.6426 2.12988 19.3887 2.13125 21.2152V23.75H0.625C0.279687 23.75 0 24.0297 0 24.375C0 24.7203 0.279687 25 0.625 25H17.2623C17.6076 25 17.8873 24.7203 17.8873 24.375C17.8873 24.0297 17.6076 23.75 17.2623 23.75H15.9438V21.2617C15.9404 19.4031 15.1578 17.6311 13.7867 16.3766L9.85762 12.7867L13.8545 8.92773C15.1418 7.67988 15.8725 5.96641 15.8813 4.17344ZM14.6938 21.2617V23.75H3.38125V21.2152C3.38047 19.7334 3.99121 18.3172 5.06875 17.3L8.95332 13.6514L12.9455 17.2988C14.0572 18.3168 14.6916 19.7543 14.6938 21.2617ZM8.94375 11.9297L4.90352 8.03008C3.8584 7.01797 3.26465 5.62793 3.25625 4.17344V1.25H14.6313V4.17344C14.6227 5.62793 14.0289 7.01797 12.9838 8.03008L8.94375 11.9297Z" fill="white"/>
</svg>
