<svg width="25" height="25" viewBox="0 0 25 25" fill="none" xmlns="http://www.w3.org/2000/svg">
<path d="M20.4134 0L19.8425 0.570866L20.7037 1.43209L17.2638 4.87205L15.8317 3.43996L15.2559 4.01083L15.8268 4.58169L3.43996 16.9734L4.30118 17.8346L3.15453 18.9813L4.30118 20.128L0 24.4291L0.570866 25L4.87205 20.6988L6.0187 21.8455L7.16535 20.6988L8.02658 21.56L20.4134 9.17323L20.9843 9.74409L21.5551 9.17323L20.128 7.74114L23.5679 4.30118L24.4291 5.15748L25 4.58661L20.4134 0ZM6.02362 20.6988L4.3061 18.9813L4.87205 18.4055L6.59449 20.128L6.02362 20.6988ZM8.02658 20.4134L4.58661 16.9734L8.66142 12.8986L10.0935 14.3307L10.6644 13.7598L9.23228 12.3278L10.9498 10.6102L11.811 11.4715L12.3819 10.9006L11.5207 10.0394L13.2382 8.32185L14.6703 9.75394L15.2411 9.18307L13.8091 7.75098L16.3878 5.17224L19.8278 8.6122L8.02658 20.4134ZM19.5522 7.16535L17.8346 5.44783L21.2746 2.00787L22.9921 3.72539L19.5522 7.16535Z" fill="white"/>
</svg>
