<svg width="21" height="27" viewBox="0 0 21 27" fill="none" xmlns="http://www.w3.org/2000/svg">
<path d="M19.7144 15.8823L19.6966 15.6377C19.4102 11.9096 17.6743 9.57253 16.1428 7.51113C14.7248 5.60231 13.5 3.95394 13.5 1.52175C13.5 1.32645 13.3906 1.14794 13.2172 1.05839C13.0432 0.968353 12.8342 0.983099 12.676 1.09809C10.376 2.74392 8.45698 5.51789 7.78662 8.16467C7.32124 10.0074 7.25967 12.0789 7.25103 13.4471C5.127 12.9934 4.64585 9.81612 4.64077 9.78155C4.61685 9.61677 4.51616 9.47331 4.36968 9.395C4.22168 9.3177 4.0477 9.31209 3.89766 9.38635C3.78628 9.44026 1.16377 10.7728 1.01118 16.0939C1.00049 16.2709 1 16.4479 1 16.6253C1 21.7943 5.20581 26 10.375 26C15.5442 26 19.75 21.7943 19.75 16.6253C19.75 16.366 19.7322 16.1239 19.7144 15.8823Z" stroke="white"/>
<path d="M14.9829 20.7388L14.9744 20.6116C14.8369 18.673 14.0036 17.4577 13.2686 16.3858C12.5879 15.3932 12 14.536 12 13.2713C12 13.1698 11.9475 13.0769 11.8643 13.0304C11.7807 12.9835 11.6804 12.9912 11.6045 13.051C10.5005 13.9068 9.57935 15.3493 9.25758 16.7256C9.0342 17.6838 9.00464 18.761 9.00049 19.4725C7.98096 19.2366 7.75001 17.5844 7.74757 17.5664C7.73609 17.4807 7.68776 17.4061 7.61745 17.3654C7.54641 17.3252 7.4629 17.3223 7.39087 17.3609C7.33741 17.3889 6.07861 18.0819 6.00537 20.8488C6.00023 20.9409 6 21.0329 6 21.1252C6 23.8131 8.01879 26 10.5 26C12.9812 26 15 23.8131 15 21.1252C15 20.9903 14.9915 20.8644 14.9829 20.7388Z" stroke="white"/>
</svg>
