<svg width="30" height="25" viewBox="0 0 30 25" fill="none" xmlns="http://www.w3.org/2000/svg">
<path d="M22.476 14.2973C22.5425 14.4203 22.6709 14.4969 22.8107 14.4969H25.5508C25.1664 17.2399 23.7923 19.7477 21.6873 21.5479C19.6925 23.2584 17.1866 24.2394 14.8126 24.2394C13.2642 24.2394 11.6453 23.822 10.1307 23.0323C8.55761 22.2109 7.19319 21.0406 6.1418 19.6109C6.01768 19.4414 5.77965 19.4046 5.6102 19.5288C5.44076 19.6529 5.40399 19.8909 5.52811 20.0604C6.64854 21.5841 8.10253 22.8314 9.77903 23.7068C11.4018 24.5529 13.1423 24.9999 14.8126 24.9999C17.3656 24.9999 20.0519 23.9522 22.1825 22.1252C24.4561 20.1806 25.9294 17.4632 26.3184 14.4968H29.2867C29.4967 14.4968 29.667 14.3265 29.667 14.1164C29.667 14.0423 29.6453 13.9698 29.6047 13.9078L26.3667 8.97074C26.2515 8.79508 26.0157 8.74608 25.8401 8.86133C25.7964 8.88992 25.7592 8.92719 25.7306 8.97074L22.4926 13.9078C22.4159 14.0247 22.4095 14.1743 22.476 14.2973ZM26.0487 9.87304L28.5824 13.7361H23.5149L26.0487 9.87304Z" fill="white"/>
<path d="M3.30031 16.029C3.41549 16.2047 3.6513 16.2537 3.82696 16.1384C3.87057 16.1098 3.90778 16.0726 3.93637 16.029L7.17436 11.092C7.28961 10.9163 7.2406 10.6806 7.06495 10.5653C7.00295 10.5247 6.93043 10.503 6.85633 10.503H4.11621C4.50061 7.76003 5.87473 5.25229 7.97968 3.45206C9.97451 1.74153 12.4804 0.760497 14.8545 0.760497C16.4028 0.760497 18.0217 1.17792 19.5363 1.96765C21.1094 2.78906 22.4738 3.95938 23.5252 5.38909C23.6493 5.55853 23.8874 5.5953 24.0568 5.47118C24.2262 5.34706 24.263 5.10903 24.1389 4.93959C23.0185 3.41587 21.5645 2.16859 19.888 1.29317C18.2652 0.447031 16.5247 0 14.8545 0C12.3014 0 9.61515 1.04778 7.48453 2.87477C5.2109 4.81934 3.73757 7.53677 3.34861 10.5032H0.380344C0.170267 10.5032 0 10.6735 0 10.8835C0 10.9576 0.0216796 11.0302 0.062313 11.0922L3.30031 16.029ZM6.15206 11.2639L3.61834 15.1269L1.08461 11.2639H6.15206Z" fill="white"/>
<path d="M14.8335 19.5601C16.8039 19.5516 18.6199 18.4922 19.5968 16.7811C20.5005 15.2041 20.5097 13.358 19.6216 11.8421C19.6157 11.832 19.6094 11.8222 19.6026 11.8127L15.1427 5.59854C15.0713 5.49908 14.9563 5.44013 14.8339 5.44006C14.7115 5.44013 14.5966 5.49914 14.5252 5.59854L10.0653 11.7957C10.0581 11.8056 10.0515 11.8158 10.0454 11.8263C9.15597 13.3522 9.16725 15.2068 10.0755 16.7876C11.0531 18.4947 12.8664 19.5513 14.8335 19.5601ZM10.6933 12.2244L14.8331 6.472L18.974 12.2416C19.725 13.5347 19.7118 15.0507 18.9369 16.4029C17.6592 18.6687 14.7866 19.4697 12.5209 18.1921C11.7743 17.7711 11.1567 17.1543 10.7347 16.4083C9.95539 15.0519 9.94055 13.528 10.6933 12.2244Z" fill="white"/>
<path d="M14.7993 17.2404C16.4994 17.2425 17.8805 15.868 17.8864 14.1678C17.8864 13.9577 17.7161 13.7875 17.5061 13.7875C17.296 13.7875 17.1257 13.9577 17.1257 14.1678C17.1203 15.4481 16.0795 16.4823 14.7993 16.4797C14.5892 16.4797 14.4189 16.6499 14.4189 16.86C14.4189 17.0701 14.5892 17.2404 14.7993 17.2404Z" fill="white"/>
</svg>
