<svg width="25" height="25" viewBox="0 0 25 25" fill="none" xmlns="http://www.w3.org/2000/svg">
<path d="M15.2109 5.60346V6.8855C16.0158 7.27179 16.7004 7.87 17.1909 8.61613C17.7491 9.45992 18.0453 10.4499 18.0427 11.4619V15.4167L17.0577 15V11.4619C17.0577 9.78776 16.0451 8.2623 14.5359 7.66627C14.3481 7.5917 14.2252 7.4101 14.2259 7.20805V2C14.2259 1.44772 13.7782 1 13.2259 1H4.82223C4.26994 1 3.82223 1.44772 3.82223 2V7.20781C3.82295 7.40384 3.69574 7.57727 3.50865 7.63548H3.50432C2.94739 7.87409 2.44866 8.23007 2.04178 8.67915C2.0086 8.71619 1.97758 8.76863 1.94559 8.80687C1.88163 8.88336 1.82367 8.96225 1.76548 9.04331C1.26049 9.74855 0.989482 10.5943 0.990444 11.4616V22.2283C0.98852 23.2131 1.7852 24.0131 2.76993 24.0148H15.2624L15.8333 25H2.76848C1.2415 24.9966 0.0054763 23.7572 0.00619767 22.2298V11.4611C0.00619767 11.3986 0.000907351 11.3358 0.00331206 11.2735C0.00403347 11.2528 -0.00101641 11.2319 0.00018594 11.2112L0.00023879 11.2101C0.00214504 11.1691 0.00406209 11.1279 0.00715962 11.0869C0.00908338 11.0619 0.0117285 11.0373 0.0138927 11.0126C0.0172594 10.9758 0.0203855 10.9387 0.0244735 10.9019C0.0273591 10.8755 0.0309662 10.8492 0.0343328 10.8228C0.0389017 10.7879 0.0432302 10.7528 0.04828 10.7181C0.052368 10.691 0.056937 10.664 0.0615059 10.6371C0.0670368 10.6032 0.0728081 10.5695 0.0788198 10.5358C0.0841102 10.5084 0.089641 10.481 0.0951718 10.4538C0.101905 10.4206 0.108638 10.3879 0.115852 10.3552C0.121864 10.3275 0.128597 10.3001 0.13509 10.2727C0.143025 10.2407 0.150721 10.2085 0.159137 10.1767C0.166351 10.149 0.173806 10.1216 0.181501 10.0942C0.190158 10.0627 0.199296 10.0314 0.208674 10.0002C0.21685 9.97273 0.225266 9.94531 0.233923 9.91813C0.243783 9.88734 0.253882 9.85655 0.264463 9.82577C0.273601 9.79859 0.282979 9.77165 0.292598 9.74471C0.303419 9.71416 0.314721 9.68409 0.326264 9.65378C0.336123 9.62709 0.346464 9.60039 0.357044 9.57369L0.393836 9.48421C0.404898 9.45775 0.41596 9.43153 0.427502 9.40556C0.440488 9.37597 0.453954 9.34662 0.46742 9.31728C0.479444 9.29154 0.491227 9.26581 0.503491 9.24007C0.517438 9.21097 0.532107 9.1821 0.546776 9.15324C0.55952 9.12798 0.572025 9.10273 0.58501 9.07771C0.600401 9.04909 0.616272 9.02046 0.632143 8.9916C0.645609 8.96731 0.658594 8.94301 0.672301 8.91896C0.689134 8.88961 0.706689 8.86075 0.724002 8.83165C0.737709 8.80879 0.750935 8.78594 0.764882 8.76333C0.78412 8.7323 0.804079 8.702 0.823798 8.67145C0.837024 8.65125 0.849528 8.6308 0.862994 8.61084C0.890889 8.56898 0.919986 8.52761 0.949083 8.48648C0.963752 8.46604 0.978661 8.44583 0.99357 8.42539C1.01978 8.38979 1.04599 8.35419 1.07317 8.31931C1.08832 8.29959 1.10443 8.28034 1.12006 8.26062C1.14194 8.2332 1.16382 8.20554 1.18643 8.17836C1.20374 8.15743 1.22154 8.13723 1.23933 8.11678C1.26097 8.09153 1.28238 8.06603 1.30474 8.0415C1.32326 8.02081 1.34249 8.00037 1.36125 7.97992C1.38337 7.95611 1.40526 7.93229 1.42762 7.90896C1.44734 7.88852 1.4673 7.86879 1.48726 7.84859C1.50986 7.82598 1.53246 7.80337 1.55531 7.781C1.57575 7.76103 1.59667 7.74179 1.61735 7.72231C1.64092 7.70066 1.664 7.67877 1.68781 7.65737C1.70897 7.63836 1.73061 7.6196 1.75201 7.60084C1.77606 7.57991 1.80011 7.55899 1.82464 7.53854C1.84652 7.52026 1.86864 7.50222 1.89101 7.48418C1.91577 7.46422 1.94078 7.44425 1.96579 7.42477C1.9884 7.40721 2.01124 7.38989 2.03409 7.37282C2.05958 7.35357 2.08555 7.33457 2.11152 7.31581L2.18125 7.2665C2.20771 7.24822 2.2344 7.23018 2.26133 7.21214C2.28466 7.19651 2.30846 7.18111 2.33203 7.16572C2.35614 7.15041 2.38044 7.13546 2.40492 7.1204L2.41571 7.11376C2.43952 7.09933 2.46333 7.08466 2.48761 7.07047C2.51623 7.05339 2.54557 7.03727 2.57466 7.02092C2.59871 7.00745 2.62324 6.99374 2.64729 6.98075C2.67759 6.96463 2.70933 6.949 2.73963 6.93336C2.76343 6.9211 2.78964 6.90883 2.81369 6.8968C2.81994 6.89343 2.83726 6.89055 2.83726 6.88742V5.60322H2.75285C2.48088 5.60322 2.28321 5.35306 2.28321 5.08102V0.487332C2.27816 0.35985 2.32554 0.235495 2.41403 0.143611C2.50276 0.0514874 2.62516 -0.000227145 2.75285 1.33719e-05H15.2778C15.4074 -0.000948758 15.5319 0.0500441 15.6236 0.141687C15.7149 0.23333 15.7659 0.357926 15.765 0.487573V5.08126C15.765 5.3533 15.55 5.60346 15.2778 5.60346H15.2109Z" fill="white"/>
<path d="M14.0424 13.7932H11.026V10.7759C11.026 10.5039 10.8055 10.2833 10.5335 10.2833H7.51702C7.24505 10.2833 7.02453 10.5039 7.02453 10.7759V13.7932H4.06963C3.79766 13.7932 3.57715 14.0137 3.57715 14.2858V17.1183C3.57715 17.3903 3.79766 17.6109 4.06963 17.6109H7.02453V20.6281C7.02453 20.9002 7.24505 21.1208 7.51702 21.1208H10.5335C10.8055 21.1208 11.026 20.9002 11.026 20.6281V17.6109H14.0424C14.3144 17.6109 14.5349 17.3903 14.5349 17.1183V14.2858C14.5349 14.0137 14.3144 13.7932 14.0424 13.7932ZM13.5499 16.6257H10.5335C10.2615 16.6257 10.041 16.8463 10.041 17.1183V20.1355H8.0095V17.1183C8.0095 16.8463 7.78899 16.6257 7.51702 16.6257H4.56212V14.7784H7.51702C7.78899 14.7784 8.0095 14.5578 8.0095 14.2858V11.2685H10.041V14.2858C10.041 14.5578 10.2615 14.7784 10.5335 14.7784H13.5499V16.6257Z" fill="white"/>
<path d="M23.2831 17.0037L17.5 14.883C16.151 14.3877 14.6553 15.0727 14.1481 16.4176C13.6412 17.7624 14.3126 19.2645 15.6525 19.7836C14.2732 19.9394 13.2555 21.1457 13.3344 22.5321C13.413 23.9183 14.5608 25.0017 15.9488 25H22.1084C23.0335 25.0014 23.8903 24.5139 24.3619 23.7177C24.8334 22.9218 24.8491 21.9356 24.4035 21.1248C24.9428 20.4696 25.1311 19.5935 24.9085 18.7745C24.6858 17.9555 24.0798 17.2955 23.2831 17.0037ZM23.9156 20.0253C23.8737 20.1391 23.8191 20.2478 23.7532 20.3495C23.2882 19.9717 22.7074 19.7655 22.1084 19.766H19.5149L20.5148 17.0376L22.9441 17.9286C23.7905 18.2401 24.225 19.1781 23.9156 20.0253ZM15.1165 18.0294C14.8385 17.4297 14.9491 16.7218 15.3969 16.2355C15.8444 15.7494 16.5406 15.5805 17.161 15.808L19.5902 16.699L18.7269 19.0543C18.8197 18.7991 18.6887 18.5167 18.4338 18.4234L16.4667 17.702C16.3013 17.6399 16.1152 17.6715 15.9793 17.7845C15.8434 17.8976 15.7785 18.0748 15.8091 18.249C15.8398 18.4231 15.9615 18.5672 16.1279 18.6271L18.0947 19.3482C18.2171 19.3934 18.3525 19.3879 18.4711 19.3331C18.5896 19.278 18.6812 19.1784 18.7262 19.0557L18.4658 19.766H18.4636L16.0363 18.876C15.6289 18.7281 15.2978 18.4234 15.1165 18.0294ZM14.3152 22.383C14.3164 21.4812 15.0475 20.751 15.9488 20.7512H18.5242V23.26C18.5261 23.1323 18.4759 23.0093 18.3855 22.9194C18.2948 22.8294 18.1714 22.7804 18.044 22.7832H15.9488C15.6768 22.7832 15.4563 23.0038 15.4563 23.2759C15.4563 23.5479 15.6768 23.7685 15.9488 23.7685H18.044C18.3157 23.7608 18.5302 23.5349 18.5242 23.2629V24.0148H15.9488C15.0475 24.0148 14.3164 23.2845 14.3152 22.383ZM22.1084 24.0148H19.5092V20.7512H22.1084C23.0092 20.7512 23.7398 21.4817 23.7398 22.383C23.7398 23.284 23.0092 24.0148 22.1084 24.0148Z" fill="white"/>
</svg>
