<svg width="31" height="25" viewBox="0 0 31 25" fill="none" xmlns="http://www.w3.org/2000/svg">
<path d="M17.7874 16.2495C16.9345 16.2495 16.2432 16.9409 16.2432 17.7937C16.2432 18.6466 16.9345 19.3379 17.7874 19.3379C18.6402 19.3379 19.3316 18.6466 19.3316 17.7937C19.3316 16.9409 18.6402 16.2495 17.7874 16.2495ZM17.7874 18.3085C17.5031 18.3085 17.2726 18.078 17.2726 17.7937C17.2726 17.5095 17.5031 17.279 17.7874 17.279C18.0716 17.279 18.3021 17.5095 18.3021 17.7937C18.3021 18.078 18.0717 18.3085 17.7874 18.3085Z" fill="white"/>
<path d="M21.0023 18.8272C19.8685 18.7407 18.8792 19.5898 18.7927 20.7236C18.7062 21.8574 19.5552 22.8467 20.689 22.9332C20.7091 22.9348 20.7291 22.936 20.7491 22.9369C20.7923 22.94 20.8356 22.941 20.8788 22.941C22.0159 22.9375 22.9348 22.0127 22.9313 20.8756C22.9279 19.7915 22.0844 18.8957 21.0023 18.8272ZM21.9054 20.9429C21.9053 20.9438 21.9052 20.9445 21.9052 20.9454C21.8703 21.5129 21.3819 21.9445 20.8144 21.9096C20.2469 21.8747 19.8152 21.3862 19.8502 20.8188C19.8835 20.2765 20.3325 19.8536 20.8757 19.8526C20.8973 19.8526 20.9189 19.8526 20.9406 19.8526C21.5081 19.8873 21.94 20.3754 21.9054 20.9429Z" fill="white"/>
<path d="M15.2136 19.3379C14.3608 19.3379 13.6694 20.0292 13.6694 20.8821C13.6694 21.735 14.3608 22.4263 15.2136 22.4263C16.0665 22.4263 16.7579 21.735 16.7579 20.8821C16.7579 20.0292 16.0665 19.3379 15.2136 19.3379ZM15.2136 21.3968C14.9294 21.3968 14.6989 21.1664 14.6989 20.8821C14.6989 20.5978 14.9294 20.3674 15.2136 20.3674C15.4979 20.3674 15.7284 20.5978 15.7284 20.8821C15.7284 21.1664 15.498 21.3968 15.2136 21.3968Z" fill="white"/>
<path d="M11.6105 23.9706C12.1791 23.9706 12.64 23.5097 12.64 22.9411C12.64 22.3725 12.1791 21.9116 11.6105 21.9116C11.042 21.9116 10.5811 22.3725 10.5811 22.9411C10.5811 23.5097 11.042 23.9706 11.6105 23.9706Z" fill="white"/>
<path d="M14.4415 23.4558C14.0151 23.4558 13.6694 23.8015 13.6694 24.2279C13.6694 24.6543 14.0151 25 14.4415 25C14.8679 25 15.2136 24.6543 15.2136 24.2279C15.2136 23.8015 14.868 23.4558 14.4415 23.4558ZM14.4415 24.4853C14.2994 24.4853 14.1842 24.37 14.1842 24.2279C14.1842 24.0858 14.2994 23.9705 14.4415 23.9705C14.5837 23.9705 14.6989 24.0858 14.6989 24.2279C14.6989 24.37 14.5837 24.4853 14.4415 24.4853Z" fill="white"/>
<path d="M18.3019 25C18.8705 25 19.3314 24.5391 19.3314 23.9705C19.3314 23.402 18.8705 22.941 18.3019 22.941C17.7334 22.941 17.2725 23.402 17.2725 23.9705C17.2725 24.5391 17.7334 25 18.3019 25Z" fill="white"/>
<path d="M16.3171 13.9955L10.6272 8.30561C9.4937 7.18406 7.93823 6.59507 6.34615 6.6847C4.69185 6.76777 3.12911 7.46942 1.9678 8.65048C-0.515291 11.1331 -0.669197 15.0173 1.62447 17.3099L7.31231 22.9998C7.51331 23.2007 7.83914 23.2007 8.04014 22.9998L16.3171 14.7233C16.5108 14.5237 16.505 14.2008 16.3171 13.9955ZM7.67623 21.908L2.35076 16.5821C0.45962 14.6909 0.614556 11.4594 2.69564 9.37832C3.67499 8.37954 4.99393 7.78534 6.39093 7.71366C6.46659 7.71006 6.54175 7.70851 6.61741 7.70851C7.84474 7.69269 9.02702 8.16997 9.89937 9.03344L15.2248 14.3594L7.67623 21.908Z" fill="white"/>
<path d="M28.4746 1.97378C27.3131 0.792714 25.7502 0.091257 24.0958 0.00851313C22.5039 -0.0789277 20.9492 0.510381 19.8152 1.63096L14.1253 7.3188C13.9244 7.51981 13.9244 7.84563 14.1253 8.04664L22.4018 16.3236C22.6028 16.5245 22.9286 16.5245 23.1296 16.3236L28.82 10.6332C31.1121 8.34107 30.9572 4.45635 28.4746 1.97378ZM28.0922 9.90535L22.7657 15.2313L15.2171 7.68272L20.543 2.35674C21.4712 1.43761 22.7472 0.957623 24.051 1.03696C25.448 1.10896 26.767 1.70309 27.7468 2.70161C29.8279 4.78321 29.9823 8.0137 28.0922 9.90535Z" fill="white"/>
<path d="M23.192 17.2789C22.7656 17.2789 22.4199 17.6246 22.4199 18.051C22.4199 18.4774 22.7656 18.8231 23.192 18.8231C23.6184 18.8231 23.9641 18.4774 23.9641 18.051C23.9641 17.6246 23.6185 17.2789 23.192 17.2789ZM23.192 18.3084C23.0499 18.3084 22.9347 18.1932 22.9347 18.051C22.9347 17.9089 23.0499 17.7937 23.192 17.7937C23.3342 17.7937 23.4494 17.9089 23.4494 18.051C23.4494 18.1932 23.3342 18.3084 23.192 18.3084Z" fill="white"/>
</svg>
