<svg width="74" height="20" viewBox="0 0 74 20" fill="none" xmlns="http://www.w3.org/2000/svg">
<path d="M13.2415 3.25816C12.9997 2.77304 12.6172 2.37292 12.1423 2.07247C11.6469 1.76908 11.0621 1.55657 10.3938 1.43052C9.71375 1.30741 8.92817 1.25171 8.01802 1.24292L3.81605 1.24585C3.37929 1.25171 2.95133 1.59174 2.84874 2.01384L0.0215325 14.3281C-0.0810617 14.7443 0.193011 15.0931 0.62977 15.0931H2.64208C3.07884 15.0931 3.5112 14.7546 3.60793 14.3281L4.29824 11.3382C4.39058 10.922 4.82148 10.5746 5.26263 10.5746H5.83862C8.29942 10.5717 10.2047 10.069 11.5736 9.06206C12.9499 8.05371 13.6285 6.72145 13.6285 5.07115C13.627 4.34859 13.5083 3.74182 13.2415 3.25816ZM8.90179 7.28132C8.29356 7.72687 7.44789 7.94965 6.35746 7.94965H5.86501C5.42678 7.94965 5.15857 7.60376 5.25384 7.18166L5.85914 4.56697C5.94415 4.1478 6.3853 3.80045 6.81767 3.80338L7.4772 3.79898C8.24666 3.79898 8.83437 3.93235 9.22716 4.1903C9.61556 4.44532 9.81048 4.85131 9.80755 5.38919C9.81928 6.20701 9.5071 6.83577 8.90179 7.28132Z" fill="#EBF5FE"/>
<path d="M70.6061 2.20724L70.4801 2.24535L70.3115 2.2688L70.1049 2.23655L69.9994 2.13396L69.951 1.97274L69.9481 1.73091V0.83541H70.6208V0.558404H69.9481V0H69.6154V0.558404H69.3896V0.83541H69.6154V1.87747L69.7707 2.39338L70.228 2.55753L70.42 2.5414L70.6237 2.50183V2.20724H70.6061Z" fill="#EBF5FE"/>
<path d="M73.7266 0.700543L73.2458 0.502686L72.8911 0.574501L72.5306 0.817794L72.321 0.584761L71.981 0.50415L71.6541 0.575966L71.3449 0.775291V0.558377H71.0181V2.515H71.3434V1.05376L71.6175 0.883747L71.8901 0.816329L72.1129 0.855902L72.2228 0.968755L72.2712 1.15636L72.2873 1.39818V2.51646H72.6141V1.26481L72.6083 1.16075L72.6024 1.06549L72.8809 0.888145L73.1564 0.819261L73.3719 0.858831L73.4891 0.971687L73.5302 1.16075L73.5521 1.39965V2.51793H73.8804V1.24723L73.7266 0.700543Z" fill="#EBF5FE"/>
<path d="M22.9455 5.01817C22.1864 4.5902 20.9875 4.37622 19.3489 4.37622C18.5384 4.37622 17.7308 4.43924 16.9145 4.56529C16.3121 4.65762 16.2535 4.67521 15.8827 4.75582C15.1176 4.9229 14.9974 5.68649 14.9974 5.68649L14.7512 6.69924C14.612 7.34559 14.9842 7.32067 15.1396 7.26645C15.4738 7.16678 15.6599 7.06419 16.3429 6.91176C16.9951 6.76373 17.6825 6.65234 18.2277 6.65967C19.0323 6.65967 19.6479 6.74468 20.0583 6.91762C20.4628 7.0935 20.665 7.39542 20.665 7.83218L20.6299 8.11651L20.3397 8.29532C19.1979 8.36713 18.3728 8.47266 17.3718 8.61776C16.3927 8.75406 15.5339 8.99296 14.8201 9.31979C14.0536 9.65689 13.4849 10.1098 13.0877 10.6858C12.7037 11.2647 12.5117 11.9667 12.5117 12.7904C12.5117 13.5657 12.7902 14.2062 13.331 14.7016C13.8748 15.1882 14.5929 15.4256 15.4518 15.4256C15.9955 15.4227 16.4162 15.3802 16.7151 15.3084L17.6898 14.9727L18.5149 14.5155L19.2741 14.0142L19.2844 14.0289L19.2082 14.3513L19.2038 14.3645V14.3674C19.1217 14.7602 19.3591 15.0827 19.7417 15.1208L19.749 15.1296H19.7842H21.3275H21.6177L21.6441 15.1178C22.0457 15.0709 22.4223 14.7485 22.5103 14.3645L23.9774 8.01392L24.0536 7.49655L24.0887 7.01143C24.0946 6.11153 23.7062 5.44467 22.9455 5.01817ZM19.7006 12.1587L19.387 12.572L18.5956 12.9809C18.2233 13.1319 17.8701 13.2081 17.5432 13.2081C17.0478 13.2081 16.6595 13.1363 16.3971 12.9897L16.0087 12.2349C16.0087 11.826 16.1025 11.5021 16.3033 11.253L17.1563 10.6726C17.5212 10.5495 17.9668 10.4454 18.4827 10.3736C18.9429 10.3164 19.8516 10.2124 19.9703 10.2094L20.1096 10.4542C20.0817 10.5934 19.8238 11.6721 19.7006 12.1587Z" fill="#EBF5FE"/>
<path d="M59.4954 5.02696C58.7318 4.59899 57.5343 4.38354 55.9002 4.38354C55.0897 4.38354 54.2806 4.44657 53.4672 4.57701C52.8634 4.66495 52.8033 4.684 52.431 4.76314C51.6674 4.92876 51.5487 5.69529 51.5487 5.69529L51.3025 6.70657C51.1647 7.35292 51.5282 7.3236 51.6982 7.27377C52.0338 7.17411 52.2141 7.07591 52.8912 6.91762C53.5405 6.77106 54.2337 6.6626 54.7804 6.66553C55.5821 6.66553 56.1977 6.75201 56.6066 6.92495C57.014 7.10083 57.2134 7.40568 57.2134 7.83804L57.1826 8.12091L56.8953 8.30411C55.7419 8.373 54.9153 8.47852 53.9245 8.62362C52.9484 8.75992 52.0866 8.99735 51.3714 9.32565C50.6078 9.66421 50.0318 10.1171 49.639 10.6946C49.2506 11.2735 49.0615 11.9741 49.0615 12.7904C49.0615 13.5716 49.3371 14.2121 49.8852 14.7045C50.4319 15.1896 51.1427 15.4329 52.0016 15.4329C52.5424 15.4271 52.963 15.3919 53.2635 15.3142L54.2352 14.983L55.0677 14.5257L55.821 14.0186L55.8342 14.0347L55.7653 14.3601L55.758 14.366L55.7609 14.3718C55.6701 14.7646 55.909 15.09 56.2959 15.1252L56.2988 15.1325H56.334C56.5875 15.1325 57.464 15.1325 57.8817 15.1325H58.166L58.1968 15.1222C58.594 15.0739 58.9692 14.7514 59.0527 14.363L60.5242 8.02124L60.6019 7.50094L60.6444 7.01435C60.6459 6.11739 60.2619 5.45346 59.4954 5.02696ZM56.2578 12.1675L55.9309 12.5852L55.1468 12.9912C54.7746 13.1407 54.4199 13.2184 54.0989 13.2184C53.5874 13.2184 53.2093 13.1451 52.9542 12.9985L52.5615 12.2467C52.5615 11.8363 52.6567 11.5153 52.8487 11.2618C53.0436 11.0229 53.3412 10.8265 53.7105 10.6828C54.0711 10.5597 54.5166 10.4601 55.0354 10.3853C55.4927 10.3281 56.3985 10.2212 56.5157 10.2197L56.6579 10.4644C56.6374 10.6037 56.378 11.678 56.2578 12.1675Z" fill="#EBF5FE"/>
<path d="M49.7856 3.30357C49.5335 2.81552 49.1554 2.42126 48.6776 2.11348C48.1881 1.80863 47.6077 1.59465 46.9291 1.47153C46.2622 1.35282 45.4664 1.28833 44.5621 1.28687L40.3543 1.28979C39.916 1.29712 39.4954 1.63715 39.3943 2.05486L36.5641 14.375C36.4615 14.7927 36.7429 15.1385 37.1709 15.1385L39.1861 15.1356C39.6141 15.1385 40.0523 14.7956 40.1535 14.3735L40.835 11.3821C40.9346 10.9659 41.367 10.6156 41.8023 10.6185H42.3783C44.842 10.6185 46.7517 10.1114 48.1265 9.10747C49.4851 8.09179 50.1725 6.76246 50.1725 5.1107C50.1652 4.39107 50.0406 3.78283 49.7856 3.30357ZM45.4459 7.33259C44.8391 7.76935 43.992 7.99213 42.9074 7.99213H42.4061C41.9738 7.99652 41.6938 7.64477 41.7906 7.2256L42.4003 4.61531C42.4897 4.19761 42.9264 3.84732 43.3617 3.85172L44.0139 3.84732C44.7878 3.85172 45.3682 3.97923 45.7639 4.23718C46.1582 4.49513 46.3443 4.89965 46.3487 5.43607C46.3531 6.25389 46.0497 6.88411 45.4459 7.33259Z" fill="#EBF5FE"/>
<path d="M67.0399 2.15307C67.1322 1.73243 66.8684 1.39094 66.436 1.3968H64.6333C64.264 1.3968 63.9313 1.67088 63.7686 2.00797L63.6689 2.16333L63.5781 2.56198L61.0586 14.0144L60.9766 14.3662L60.9795 14.375C60.8959 14.7516 61.1275 15.036 61.4851 15.0902L61.5159 15.1327H63.3875C63.7539 15.1327 64.0983 14.8542 64.2552 14.5113L64.3519 14.3647L67.0457 2.15453L67.0399 2.15307Z" fill="#EBF5FE"/>
<path d="M36.6196 4.5302C36.1433 4.53606 34.2072 4.5302 34.2072 4.5302C33.7734 4.5302 33.2164 4.88048 32.9409 5.29819C32.9409 5.29819 30.0595 10.2432 29.7795 10.7401L29.4454 10.7357L28.5484 5.33189C28.4487 4.90686 28.0046 4.54339 27.4521 4.54339L25.6494 4.54632C25.2155 4.54632 24.9488 4.89221 25.047 5.31431C25.047 5.31431 26.4159 13.1041 26.69 14.9376C26.8175 15.9489 26.6738 16.1292 26.6738 16.1292L24.8916 19.2334C24.6278 19.6555 24.77 19.9999 25.2024 19.9999L27.2865 19.997C27.7203 19.997 28.2904 19.6555 28.5484 19.2319L36.5654 5.67192C36.5654 5.67339 37.3363 4.51407 36.6196 4.5302Z" fill="#EBF5FE"/>
</svg>
