<svg width="56" height="20" viewBox="0 0 56 20" fill="none" xmlns="http://www.w3.org/2000/svg">
<path d="M18.8549 16.5651C18.8561 16.4518 18.8222 16.4168 18.7113 16.4215C18.57 16.4285 18.4275 16.4308 18.285 16.4215C18.1694 16.4133 18.1367 16.4518 18.1367 16.5698C18.1414 17.3499 18.139 18.1277 18.139 18.9055C18.139 18.9604 18.139 19.0152 18.139 19.0725C18.1122 19.0538 18.1017 19.0363 18.0935 19.0152C17.6999 18.1896 17.3064 17.3639 16.9175 16.5382C16.8778 16.4518 16.8311 16.4191 16.7376 16.4215C16.5169 16.4285 16.295 16.4238 16.0731 16.4238C15.9785 16.4238 15.8839 16.4238 15.7847 16.4238C15.7847 17.594 15.7847 18.742 15.7847 19.9098C15.9622 19.9098 16.1327 19.9098 16.3032 19.9098C16.4959 19.9098 16.4959 19.9086 16.4959 19.723C16.4959 18.8599 16.4959 17.991 16.4959 17.0906C16.5262 17.1467 16.5403 17.1724 16.5531 17.1969C16.9595 18.0658 17.3659 18.9347 17.7677 19.807C17.8039 19.8864 17.8447 19.9121 17.9277 19.9121C18.1951 19.9086 18.4637 19.9086 18.7311 19.9121C18.8199 19.9121 18.8549 19.8864 18.8538 19.7907C18.8503 19.4917 18.8526 19.1951 18.8526 18.8985C18.8526 18.1207 18.8503 17.3429 18.8549 16.5651Z" fill="#EBF5FE"/>
<path d="M10.9149 16.424C10.6171 16.4287 10.3205 16.4357 10.0239 16.4216C9.87557 16.4135 9.82301 16.4742 9.78331 16.6015C9.55207 17.3653 9.31033 18.1255 9.06508 18.908C9.04873 18.8718 9.04289 18.8601 9.03939 18.8484C8.8175 18.0776 8.59327 17.3092 8.37372 16.5396C8.34803 16.4497 8.31182 16.417 8.21723 16.4193C8.04205 16.4263 7.86571 16.4216 7.69053 16.4216C7.50368 16.4216 7.31682 16.4216 7.12646 16.4216C7.12646 17.5895 7.12646 18.7398 7.12646 19.9065C7.31449 19.9065 7.49434 19.9006 7.67301 19.9088C7.79097 19.9147 7.83067 19.8773 7.82951 19.7547C7.826 18.8986 7.82834 18.0391 7.82834 17.1807C7.82834 17.1492 7.82834 17.1107 7.82834 17.0768C7.97549 17.4809 8.10278 17.8861 8.22774 18.2914C8.38423 18.7947 8.54072 19.2934 8.69371 19.7979C8.7194 19.8796 8.76028 19.9147 8.84553 19.91C8.98684 19.903 9.12931 19.9123 9.27179 19.903C9.30799 19.9018 9.36405 19.8621 9.37573 19.8294C9.59995 19.1322 9.81951 18.4385 10.0391 17.7425C10.115 17.5031 10.1909 17.2672 10.2668 17.0301C10.2738 17.0313 10.282 17.0336 10.289 17.0348C10.289 17.9866 10.289 18.9395 10.289 19.9088C10.5062 19.9088 10.7141 19.9053 10.922 19.91C11.0119 19.9135 11.0399 19.8796 11.0387 19.7932C11.0376 18.7094 11.0376 17.6269 11.0387 16.5431C11.0399 16.452 11.0084 16.4216 10.9149 16.424Z" fill="#EBF5FE"/>
<path d="M14.898 17.2998C14.7508 16.9203 14.5009 16.633 14.1108 16.4847C13.7418 16.3457 13.3646 16.32 12.9792 16.3971C12.5494 16.4823 12.2178 16.7065 11.9982 17.0861C11.8184 17.3991 11.7389 17.7366 11.7051 18.0951C11.7366 18.3427 11.7483 18.5938 11.802 18.8367C11.9024 19.2898 12.1605 19.632 12.5915 19.8282C12.9885 20.008 13.4043 20.0442 13.827 19.9485C14.2778 19.8445 14.634 19.6028 14.8302 19.173C15.1093 18.5622 15.1432 17.9328 14.898 17.2998ZM14.2568 18.1383C14.258 18.4058 14.2405 18.6744 14.1295 18.9231C13.966 19.2898 13.7371 19.4381 13.3622 19.43C12.9897 19.4206 12.7468 19.2314 12.6312 18.8881C12.47 18.4069 12.4688 17.9164 12.637 17.4399C12.7631 17.0803 13.0469 16.9039 13.4183 16.9086C13.7558 16.9133 14.0349 17.1048 14.1494 17.454C14.2206 17.6735 14.2451 17.9083 14.2895 18.136C14.2778 18.136 14.2673 18.1383 14.2568 18.1383Z" fill="#EBF5FE"/>
<path d="M6.27365 0.151188C6.11716 1.31903 5.9595 2.4822 5.80301 3.64537C5.789 3.6442 5.77615 3.64304 5.7633 3.64304C5.71309 3.28451 5.66404 2.92598 5.61032 2.56629C5.49703 1.80368 5.37791 1.04108 5.26931 0.276147C5.25412 0.167538 5.22026 0.141846 5.11632 0.141846C4.44598 0.146517 3.77797 0.144181 3.10763 0.144181C3.06325 0.144181 3.01887 0.148852 2.97333 0.151188C2.79932 1.3237 2.62765 2.48454 2.45714 3.64654C2.44429 3.64654 2.43262 3.64654 2.41977 3.64654C2.26328 2.48103 2.10562 1.31553 1.94796 0.147685C1.29163 0.147685 0.653992 0.147685 0 0.147685C0.00350353 0.195567 0.00116784 0.228265 0.0081749 0.260965C0.232401 1.291 0.457794 2.32221 0.680852 3.35341C0.840847 4.09499 1.00084 4.83774 1.15616 5.58049C1.17835 5.68443 1.21339 5.7288 1.33368 5.72764C1.94446 5.72063 2.55524 5.72413 3.16485 5.72413C3.29799 5.72413 3.43112 5.72413 3.57477 5.72413C3.74761 4.52009 3.92045 3.32422 4.09095 2.12835C4.10497 2.12835 4.11781 2.12835 4.13183 2.12835C4.3035 3.32538 4.47517 4.52242 4.64801 5.72413C4.71108 5.72413 4.75662 5.72413 4.80217 5.72413C5.45966 5.72413 6.11599 5.72413 6.77349 5.72413C7.03041 5.72413 7.03041 5.72413 7.08647 5.46954C7.28033 4.57731 7.47536 3.68508 7.66922 2.79285C7.82104 2.09097 7.97169 1.39027 8.12234 0.693068C8.15972 0.515556 8.19475 0.335707 8.23212 0.151188C7.57112 0.151188 6.92881 0.151188 6.27365 0.151188Z" fill="#EBF5FE"/>
<path d="M11.6639 4.27843C11.6639 4.06355 11.6639 3.85684 11.6639 3.63728C12.3202 3.63728 12.966 3.63728 13.6142 3.63728C13.6142 3.15263 13.6142 2.68199 13.6142 2.19617C12.9613 2.19617 12.3155 2.19617 11.6615 2.19617C11.6615 1.98829 11.6615 1.79443 11.6615 1.58305C12.3704 1.58305 13.0711 1.58305 13.7765 1.58305C13.7788 1.5305 13.7835 1.49429 13.7835 1.45692C13.7835 1.06219 13.78 0.669796 13.7858 0.276233C13.787 0.162952 13.7461 0.138428 13.6387 0.138428C12.3295 0.141931 11.0204 0.140763 9.71008 0.140763C9.54541 0.140763 9.54541 0.140763 9.54541 0.305429C9.54541 2.05019 9.54541 3.79377 9.54658 5.53853C9.54658 5.59692 9.55125 5.65415 9.55592 5.71488C10.9982 5.71488 12.4183 5.71488 13.8407 5.71488C13.8407 5.23256 13.8407 4.75958 13.8407 4.27843C13.1085 4.27843 12.3903 4.27843 11.6639 4.27843Z" fill="#EBF5FE"/>
<path d="M44.7659 0.148938C44.7659 1.2724 44.7659 2.38886 44.7659 3.50298C44.7589 3.50415 44.7461 3.50648 44.7344 3.50765C44.718 3.46911 44.7005 3.43408 44.6865 3.39671C44.321 2.34915 43.9543 1.30277 43.5911 0.254044C43.5607 0.171127 43.5245 0.138428 43.4311 0.138428C42.6404 0.143099 41.851 0.144267 41.0592 0.138428C40.9424 0.138428 40.9109 0.172296 40.9132 0.285576C40.9155 2.05019 40.9155 3.8148 40.9155 5.58057C40.9155 5.62379 40.919 5.66933 40.9249 5.71955C40.9739 5.72305 41.0113 5.72539 41.0463 5.72539C41.552 5.72539 42.0495 5.72188 42.554 5.72772C42.665 5.72889 42.693 5.7032 42.693 5.58875C42.6883 4.54353 42.6907 3.49714 42.6907 2.45192C42.6907 2.41338 42.6977 2.37601 42.7 2.33864C42.7584 2.4309 42.7958 2.52316 42.8273 2.61659C43.1718 3.60926 43.5187 4.60192 43.8585 5.59576C43.8947 5.69852 43.9449 5.72539 44.05 5.72539C44.8442 5.72071 45.6371 5.72305 46.4336 5.72305C46.4628 5.72305 46.4978 5.71838 46.5294 5.71604C46.5294 3.85567 46.5294 2.00114 46.5294 0.148938C45.9361 0.148938 45.3568 0.148938 44.7659 0.148938Z" fill="#EBF5FE"/>
<path d="M32.2852 4.28187C31.6428 4.28537 30.9982 4.28304 30.3547 4.28304C30.3092 4.28304 30.266 4.27836 30.2204 4.27603C30.2204 4.05998 30.2204 3.85911 30.2204 3.63955C30.8767 3.63955 31.5179 3.63955 32.166 3.63955C32.166 3.1549 32.166 2.68192 32.166 2.1961C31.5155 2.1961 30.8744 2.1961 30.2227 2.1961C30.2227 1.98939 30.2227 1.79553 30.2227 1.58298C30.9363 1.58298 31.6382 1.58298 32.3389 1.58298C32.3389 1.09366 32.3389 0.623017 32.3389 0.147705C30.9293 0.147705 29.5314 0.147705 28.1265 0.147705C28.1265 2.00808 28.1265 3.86144 28.1265 5.71598C28.1545 5.71948 28.1697 5.72299 28.186 5.72299C29.5629 5.72299 30.941 5.72298 32.3097 5.72532C32.3938 5.72532 32.4195 5.69963 32.4171 5.61671C32.4148 5.21614 32.4101 4.8144 32.4195 4.41267C32.4218 4.30522 32.3856 4.28187 32.2852 4.28187Z" fill="#EBF5FE"/>
<path d="M39.168 4.44191C39.1271 4.18265 39.1026 3.91988 39.0547 3.66296C38.9811 3.27523 38.7382 3.03933 38.3563 2.94473C38.2851 2.92722 38.2197 2.9097 38.1169 2.88401C38.1847 2.86182 38.215 2.85247 38.2442 2.84196C38.5409 2.74854 38.8071 2.61073 38.9952 2.3468C39.203 2.04783 39.2299 1.70565 39.1984 1.36114C39.1563 0.856631 38.9087 0.493432 38.4182 0.311248C38.0434 0.172275 37.6533 0.146583 37.2609 0.144247C36.2262 0.138408 35.1927 0.141912 34.1615 0.141912C34.1194 0.141912 34.0785 0.141912 34.0283 0.141912C34.0283 2.0128 34.0283 3.86383 34.0283 5.71602C34.7407 5.71602 35.4472 5.71602 36.1678 5.71602C36.1678 5.05386 36.1678 4.3987 36.1678 3.71784C36.3512 3.73303 36.524 3.73653 36.6887 3.76456C36.8276 3.78675 36.9211 3.88134 36.9526 4.02032C36.9853 4.1663 37.0075 4.31461 37.0308 4.46293C37.0986 4.84481 37.1628 5.2267 37.227 5.60858C37.2422 5.69033 37.2749 5.72654 37.3684 5.72654C38.0072 5.72186 38.6495 5.7242 39.2883 5.7242C39.3233 5.7242 39.3607 5.71953 39.377 5.71836C39.3046 5.28743 39.2357 4.86467 39.168 4.44191ZM36.823 2.39118C36.6198 2.49161 36.4037 2.4846 36.1701 2.46942C36.1725 2.11089 36.1725 1.76521 36.1725 1.40435C36.4072 1.39617 36.6384 1.37982 36.8615 1.47442C37.053 1.55734 37.1079 1.71967 37.1056 1.91353C37.1032 2.12841 37.0215 2.29425 36.823 2.39118Z" fill="#EBF5FE"/>
<path d="M53.0796 0.196777C53.0796 4.24335 53.0796 8.27942 53.0796 12.3213C53.305 12.3213 53.5245 12.3213 53.7499 12.3213C53.7499 8.27942 53.7499 4.23868 53.7499 0.196777C53.5222 0.196777 53.2991 0.196777 53.0796 0.196777Z" fill="#EBF5FE"/>
<path d="M21.7031 0.148682C21.7031 0.64735 21.7031 1.13785 21.7031 1.63885C22.1633 1.63885 22.614 1.63885 23.08 1.63885C23.08 3.00639 23.08 4.36226 23.08 5.71695C23.8169 5.71695 24.5351 5.71695 25.2767 5.71695C25.2767 4.35058 25.2767 2.99705 25.2767 1.63301C25.7392 1.63301 26.1888 1.63301 26.6419 1.63301C26.6419 1.13084 26.6419 0.641511 26.6419 0.148682C24.9906 0.148682 23.3486 0.148682 21.7031 0.148682Z" fill="#EBF5FE"/>
<path d="M19.3742 2.43541C19.0028 2.29877 18.6163 2.20535 18.2367 2.09207C17.9938 2.01966 17.7474 1.95426 17.508 1.87134C17.3819 1.82697 17.3211 1.71602 17.3282 1.58172C17.3352 1.44041 17.4134 1.3353 17.5454 1.30611C17.6937 1.27224 17.8513 1.25356 18.0008 1.26757C18.1865 1.28509 18.3045 1.40771 18.3232 1.58289C18.336 1.6985 18.3897 1.71135 18.4867 1.71135C19.0472 1.70901 19.6078 1.71018 20.1672 1.71018C20.208 1.71018 20.2489 1.70551 20.284 1.70317C20.2933 1.68449 20.298 1.67748 20.2991 1.67047C20.3015 1.65763 20.3015 1.64595 20.3015 1.6331C20.2875 1.0632 20.0492 0.620585 19.5435 0.336799C19.1955 0.141769 18.8136 0.0565172 18.4189 0.0261533C17.7941 -0.0240639 17.174 -0.0170578 16.5714 0.183811C15.8894 0.412708 15.4141 0.833133 15.3311 1.58639C15.2471 2.33848 15.4958 2.92357 16.2304 3.20502C16.6415 3.36268 17.0724 3.46779 17.4952 3.59742C17.7194 3.66515 17.9448 3.72704 18.1632 3.80763C18.3523 3.87653 18.4458 4.03302 18.4213 4.19185C18.3874 4.42074 18.2052 4.58541 17.9681 4.60526C17.6365 4.63212 17.4426 4.53169 17.3644 4.28411C17.3363 4.19885 17.3223 4.10893 17.3001 4.01317C16.6123 4.01317 15.9244 4.01317 15.2225 4.01317C15.2179 4.0447 15.2144 4.06455 15.2144 4.08557C15.2144 4.11477 15.2144 4.14397 15.2167 4.17316C15.2786 4.91474 15.6757 5.39706 16.3682 5.65165C16.8003 5.81164 17.2511 5.86069 17.7089 5.86653C18.2215 5.87354 18.7284 5.83033 19.2154 5.65982C19.8589 5.43326 20.3132 5.03036 20.444 4.33199C20.6145 3.4129 20.2501 2.7554 19.3742 2.43541Z" fill="#EBF5FE"/>
<path d="M31.7667 6.84061C31.407 6.84762 31.045 6.84411 30.6876 6.84528C30.3653 6.84528 30.0441 6.84528 29.7066 6.84528C29.7043 6.89667 29.6996 6.93287 29.6996 6.96907C29.6996 8.74653 29.6996 10.5228 29.6973 12.2991C29.6973 12.3949 29.7195 12.4287 29.8246 12.4287C30.454 12.4229 31.0858 12.4264 31.7176 12.4264C31.8881 12.4264 31.8881 12.4264 31.8881 12.2559C31.8881 10.6454 31.8881 9.03499 31.8881 7.4257C31.8881 7.27155 31.8835 7.11622 31.8881 6.96207C31.8893 6.86864 31.8601 6.83944 31.7667 6.84061Z" fill="#EBF5FE"/>
<path d="M21.9608 19.3074C21.5136 19.3121 21.0663 19.3097 20.6178 19.3097C20.5699 19.3097 20.5209 19.305 20.459 19.3027C20.459 19.0364 20.4625 18.783 20.4578 18.5273C20.4555 18.4292 20.487 18.3988 20.5851 18.3988C20.9705 18.4035 21.3547 18.4011 21.7401 18.4011C21.7962 18.4011 21.8546 18.3941 21.9176 18.3918C21.9176 18.1968 21.9176 18.0146 21.9176 17.8207C21.8581 17.816 21.8044 17.8102 21.7518 17.8102C21.3629 17.809 20.9729 17.8114 20.584 17.8079C20.5419 17.8067 20.4648 17.7682 20.4648 17.7448C20.4555 17.5031 20.459 17.2613 20.459 17.0009C20.9904 17.0009 21.4995 17.0009 22.0239 17.0009C22.0239 16.8549 22.0146 16.7183 22.0262 16.5816C22.0368 16.4532 21.9947 16.417 21.8674 16.4193C21.1947 16.424 20.5209 16.424 19.8471 16.4193C19.7279 16.417 19.6917 16.4485 19.6929 16.57C19.6964 17.6292 19.6941 18.6884 19.6941 19.7453C19.6941 19.7932 19.6941 19.8434 19.6941 19.8995C20.4952 19.8995 21.28 19.8995 22.0765 19.8995C22.0765 19.7383 22.0706 19.583 22.0788 19.4288C22.0835 19.3366 22.0543 19.3074 21.9608 19.3074Z" fill="#EBF5FE"/>
<path d="M18.23 6.85575C18.23 6.96202 18.23 7.06129 18.23 7.16055C18.23 8.24781 18.2312 9.33624 18.2265 10.4235C18.2265 10.5508 18.209 10.6921 18.1693 10.8147C18.1167 10.9771 17.9906 11.0752 17.8131 11.0845C17.6297 11.0927 17.4814 11.0179 17.4137 10.8428C17.3681 10.7283 17.3389 10.601 17.3389 10.4796C17.3331 9.32106 17.3343 8.16256 17.3343 7.00406C17.3343 6.95501 17.3343 6.90596 17.3343 6.85107C16.5997 6.85107 15.8768 6.85107 15.1469 6.85107C15.1434 6.88261 15.1399 6.89779 15.1399 6.91414C15.1399 8.18241 15.134 9.44952 15.1481 10.7155C15.1504 10.9362 15.2111 11.1663 15.2917 11.3718C15.5089 11.9312 15.9609 12.2383 16.5133 12.396C17.3121 12.6284 18.1202 12.6214 18.9284 12.4345C19.8883 12.2115 20.4267 11.5411 20.4267 10.5648C20.429 9.37712 20.4279 8.18942 20.4279 7.00173C20.4279 6.95268 20.4279 6.90479 20.4279 6.85575C19.6875 6.85575 18.9657 6.85575 18.23 6.85575Z" fill="#EBF5FE"/>
<path d="M44.0829 18.2237C43.9241 18.101 43.7255 18.0275 43.527 17.9609C43.2806 17.8745 43.0202 17.8243 42.7691 17.7507C42.4479 17.6573 42.3335 17.3536 42.518 17.1119C42.7014 16.8678 43.1778 16.8269 43.381 17.0546C43.4698 17.1527 43.513 17.2941 43.5854 17.4284C43.7933 17.4284 44.0257 17.4284 44.2651 17.4284C44.313 16.9939 44.028 16.591 43.5854 16.4497C43.2409 16.3434 42.887 16.3469 42.5355 16.4228C42.3265 16.4707 42.1373 16.5607 41.9703 16.7031C41.5919 17.0313 41.4459 17.8827 42.1396 18.2295C42.2856 18.2996 42.4374 18.3638 42.5916 18.4105C42.831 18.4888 43.0774 18.539 43.3133 18.6196C43.6228 18.7247 43.6835 19.0855 43.4242 19.2899C43.3483 19.3495 43.2432 19.3927 43.1451 19.4125C42.7446 19.4919 42.3195 19.3868 42.3218 18.8531C42.3218 18.8274 42.2611 18.7842 42.2307 18.7831C42.0894 18.7749 41.9481 18.7796 41.8044 18.7796C41.5464 18.7796 41.5417 18.7796 41.5662 19.0353C41.6036 19.4324 41.7974 19.7208 42.1735 19.8668C42.5776 20.0256 42.9968 20.0256 43.4161 19.9299C43.7255 19.8598 43.9918 19.7162 44.1857 19.4534C44.4776 19.0587 44.4449 18.4934 44.0829 18.2237Z" fill="#EBF5FE"/>
<path d="M47.8315 0.196777C47.8315 4.24335 47.8315 8.27942 47.8315 12.3213C48.0593 12.3213 48.2788 12.3213 48.5066 12.3213C48.5066 8.27942 48.5066 4.23868 48.5066 0.196777C48.2765 0.196777 48.0523 0.196777 47.8315 0.196777Z" fill="#EBF5FE"/>
<path d="M47.3255 16.4389C47.2823 16.4343 47.2484 16.4296 47.2157 16.4296C46.5442 16.4296 45.8762 16.4296 45.207 16.4272C45.0972 16.4272 45.0832 16.4798 45.0832 16.5732C45.0856 17.6301 45.0856 18.6905 45.0856 19.7463C45.0856 19.7778 45.0762 19.8105 45.0879 19.835C45.1019 19.863 45.1311 19.9039 45.1545 19.9039C45.381 19.9097 45.6064 19.9074 45.8505 19.9074C45.8505 19.4041 45.8505 18.9264 45.8505 18.4359C46.313 18.4359 46.7649 18.4359 47.2391 18.4359C47.2391 18.2841 47.2391 18.144 47.2391 18.0027C47.2391 17.8368 47.2391 17.8368 47.0721 17.8368C46.7054 17.8368 46.3375 17.8392 45.9708 17.8345C45.9252 17.8345 45.8517 17.796 45.8493 17.7714C45.8412 17.5192 45.8435 17.2669 45.8435 16.9995C46.3515 16.9995 46.8373 16.9995 47.3255 16.9995C47.3255 16.8033 47.3255 16.6234 47.3255 16.4389Z" fill="#EBF5FE"/>
<path d="M50.1882 19.3097C49.741 19.3097 49.2925 19.3062 48.8487 19.3109C48.7471 19.3121 48.7203 19.277 48.7226 19.1824C48.7296 18.9874 48.7249 18.79 48.7249 18.5938C48.7249 18.4 48.7249 18.4011 48.9106 18.4011C49.2773 18.4011 49.6382 18.4011 50.0026 18.4011C50.0621 18.4 50.1193 18.3953 50.1917 18.3918C50.1917 18.2458 50.1917 18.1092 50.1917 17.9749C50.1917 17.8102 50.1917 17.8102 50.0236 17.8102C49.6359 17.809 49.2458 17.8114 48.8581 17.8067C48.8149 17.8067 48.7343 17.7705 48.7343 17.7495C48.7273 17.5031 48.7296 17.259 48.7296 17.0009C49.2586 17.0009 49.7725 17.0009 50.2922 17.0009C50.2922 16.8467 50.2828 16.7089 50.2945 16.5723C50.3039 16.4485 50.2606 16.417 50.1392 16.4193C49.4653 16.424 48.7927 16.4216 48.12 16.4216C48.0721 16.4216 48.0242 16.4263 47.9717 16.4287C47.9717 17.5918 47.9717 18.741 47.9717 19.8995C48.7588 19.8995 49.5436 19.8995 50.3342 19.8995C50.3342 19.7009 50.3342 19.5118 50.3342 19.3097C50.2793 19.3097 50.2338 19.3097 50.1882 19.3097Z" fill="#EBF5FE"/>
<path d="M55.1037 0.107962C54.7043 0.112633 54.3738 0.443133 54.3785 0.837864C54.3808 1.23493 54.7206 1.56309 55.1271 1.55959C55.5218 1.55609 55.8359 1.23259 55.8336 0.833192C55.8336 0.415105 55.5171 0.103291 55.1037 0.107962ZM55.1095 1.48718C54.7604 1.48952 54.4754 1.19406 54.4754 0.828521C54.4754 0.46649 54.7627 0.178032 55.1189 0.181536C55.4774 0.185039 55.7367 0.465321 55.7343 0.843702C55.7355 1.20924 55.4681 1.48485 55.1095 1.48718Z" fill="#EBF5FE"/>
<path d="M53.6198 19.152C53.5918 19.0014 53.5743 18.8507 53.5486 18.7024C53.5007 18.4221 53.3524 18.2259 53.0289 18.1827C53.0931 18.157 53.1293 18.1395 53.1632 18.1232C53.5789 17.9433 53.6969 17.642 53.6922 17.3197C53.6875 16.925 53.4458 16.6026 53.0744 16.501C52.8922 16.452 52.696 16.4298 52.5045 16.4275C52.0572 16.4181 51.61 16.4251 51.1638 16.4251C51.116 16.4251 51.0681 16.4298 51.0132 16.4345C51.0132 17.5953 51.0132 18.7445 51.0132 19.903C51.2666 19.903 51.513 19.903 51.7746 19.903C51.7746 19.4405 51.7746 18.985 51.7746 18.5156C52 18.5156 52.2126 18.5156 52.4274 18.5156C52.6914 18.5156 52.7766 18.5915 52.8152 18.8531C52.863 19.1731 52.9109 19.4966 52.9611 19.8165C52.9658 19.8504 52.9997 19.9053 53.0207 19.9065C53.2753 19.9123 53.5287 19.91 53.7588 19.91C53.7109 19.6472 53.663 19.3985 53.6198 19.152ZM52.5115 17.9246C52.292 17.941 52.0689 17.934 51.8494 17.9387C51.777 17.941 51.7559 17.9013 51.7559 17.8359C51.7583 17.7121 51.7559 17.5871 51.7559 17.4598C51.7559 17.336 51.7583 17.2088 51.7559 17.085C51.7559 17.0149 51.7805 16.9892 51.8517 16.9915C52.0666 17.0009 52.278 16.9962 52.4928 17.0079C52.7463 17.0172 52.8876 17.1702 52.8969 17.4341C52.9051 17.6911 52.7439 17.906 52.5115 17.9246Z" fill="#EBF5FE"/>
<path d="M26.0858 6.84995C26.0858 7.97225 26.0858 9.08754 26.0858 10.2028C26.0741 10.204 26.0624 10.2063 26.0496 10.2087C26.0379 10.1795 26.0227 10.1526 26.0134 10.1234C25.6432 9.06885 25.2718 8.01429 24.9063 6.95856C24.8747 6.8663 24.8315 6.84061 24.7381 6.84178C23.9475 6.84528 23.1568 6.84528 22.3662 6.84061C22.2517 6.83944 22.2202 6.86864 22.2202 6.98659C22.2226 8.75354 22.2214 10.5158 22.2214 12.2816C22.2225 12.326 22.2261 12.3692 22.2284 12.4171C22.8205 12.4171 23.3997 12.4171 24.0012 12.4171C24.0012 11.2866 24.0012 10.1631 24 9.03849C24.0117 9.03732 24.0234 9.03499 24.0339 9.03382C24.0549 9.08637 24.0771 9.13659 24.0958 9.18914C24.4578 10.2274 24.8198 11.2656 25.1795 12.3084C25.2111 12.4019 25.2531 12.4287 25.3477 12.4287C26.143 12.4264 26.9383 12.4264 27.7324 12.4264C27.7686 12.4264 27.806 12.4206 27.848 12.4182C27.848 10.5567 27.848 8.70332 27.848 6.84995C27.2571 6.84995 26.6767 6.84995 26.0858 6.84995Z" fill="#EBF5FE"/>
<path d="M55.4692 0.591446C55.4459 0.530719 55.3711 0.454809 55.3127 0.445466C55.1667 0.424445 55.0138 0.439628 54.8701 0.439628C54.8701 0.711735 54.8701 0.972163 54.8701 1.23259C54.8841 1.23259 54.8993 1.23376 54.9157 1.23376C54.9157 1.11114 54.9157 0.989681 54.9157 0.875232C55.0616 0.829686 55.1527 0.853043 55.2076 0.976834C55.2415 1.04807 55.2847 1.11581 55.3314 1.1777C55.3536 1.20573 55.3945 1.22091 55.4248 1.24194C55.433 1.23376 55.44 1.22442 55.447 1.21624C55.3746 1.10179 55.3034 0.987345 55.2275 0.868225C55.2824 0.853043 55.3256 0.846037 55.3618 0.82852C55.4645 0.780638 55.5054 0.686042 55.4692 0.591446ZM55.1516 0.792316C54.9343 0.792316 54.8736 0.703559 54.932 0.530719C54.9367 0.515537 54.9495 0.491012 54.9565 0.49218C55.0862 0.501523 55.2181 0.508531 55.3443 0.533055C55.3688 0.537727 55.3921 0.631153 55.3805 0.674363C55.3676 0.716406 55.3174 0.761952 55.2742 0.780638C55.2263 0.800491 55.1667 0.791149 55.1516 0.792316Z" fill="#EBF5FE"/>
<path d="M29.609 16.424C28.9223 16.424 28.2356 16.4252 27.5501 16.4229C27.4427 16.4229 27.3971 16.4497 27.4065 16.5642C27.4158 16.6786 27.4135 16.7896 27.4076 16.904C27.4018 16.9963 27.4357 17.0278 27.5291 17.0255C27.7837 17.0196 28.0394 17.0278 28.294 17.022C28.4026 17.0173 28.4365 17.0488 28.4365 17.1609C28.4318 18.0076 28.4342 18.8531 28.4342 19.6975C28.4342 19.743 28.4283 19.7909 28.4388 19.8341C28.4458 19.8645 28.4797 19.9065 28.5031 19.9065C28.732 19.9112 28.9609 19.91 29.2014 19.91C29.2014 19.8411 29.2014 19.7909 29.2014 19.743C29.2014 18.922 29.1991 18.1034 29.2014 17.2824C29.2049 16.9939 29.1512 17.0266 29.463 17.0243C29.7106 17.022 29.9605 17.022 30.2186 17.022C30.2186 16.8211 30.2186 16.6342 30.2186 16.424C30.0084 16.424 29.8075 16.424 29.609 16.424Z" fill="#EBF5FE"/>
<path d="M24.9358 16.4436C24.8564 16.4401 24.8191 16.4693 24.7875 16.5417C24.6614 16.8232 24.5283 17.1046 24.3986 17.3826C24.3052 17.5858 24.2118 17.7843 24.1113 18.0004C24.0927 17.9583 24.0821 17.9373 24.0716 17.9128C23.8638 17.4515 23.6571 16.9925 23.4457 16.5324C23.4282 16.4974 23.3803 16.4506 23.3452 16.4495C23.0825 16.4436 22.8197 16.446 22.5312 16.446C22.5569 16.4985 22.5698 16.5336 22.5873 16.5674C22.9342 17.2156 23.2845 17.8591 23.6267 18.5107C23.6664 18.5843 23.6874 18.6754 23.6898 18.7595C23.6956 19.1016 23.6944 19.4462 23.6898 19.7883C23.6886 19.8794 23.7143 19.9121 23.81 19.9098C23.977 19.9028 24.1452 19.9028 24.3122 19.9098C24.415 19.9145 24.45 19.8818 24.4488 19.7767C24.443 19.4286 24.4442 19.0806 24.4488 18.7338C24.4488 18.6777 24.4617 18.6088 24.4897 18.5586C24.763 18.0366 25.0409 17.5157 25.3177 16.9972C25.4123 16.8209 25.5046 16.6433 25.6097 16.4448C25.3668 16.4448 25.1519 16.4483 24.9358 16.4436Z" fill="#EBF5FE"/>
<path d="M44.7601 6.85567C44.7601 7.97914 44.7601 9.09209 44.7601 10.205C44.7193 10.177 44.7029 10.1443 44.6912 10.1105C44.321 9.05939 43.9543 8.00833 43.59 6.95611C43.5631 6.87903 43.5304 6.84399 43.4417 6.84399C42.6393 6.8475 41.837 6.8475 41.0336 6.84516C40.9366 6.84399 40.9121 6.87786 40.9121 6.96895C40.9144 8.74641 40.9168 10.5239 40.9121 12.3002C40.9121 12.4076 40.9506 12.4298 41.0511 12.4298C41.5474 12.4216 42.0437 12.4216 42.5448 12.4298C42.658 12.4298 42.6931 12.3994 42.6919 12.2826C42.6872 11.2608 42.6896 10.2412 42.6896 9.21939C42.6896 9.15983 42.6896 9.10027 42.6896 9.03954C42.7351 9.07574 42.755 9.11545 42.7713 9.15515C43.1368 10.2085 43.5036 11.2619 43.8667 12.313C43.8983 12.4018 43.9345 12.4298 44.0256 12.4298C44.822 12.4251 45.6138 12.4274 46.4115 12.4274C46.4465 12.4274 46.4827 12.4274 46.5329 12.4274C46.5329 10.5566 46.5329 8.7067 46.5329 6.85567C45.9397 6.85567 45.3557 6.85567 44.7601 6.85567Z" fill="#EBF5FE"/>
<path d="M33.4339 19.6354C33.3953 19.3785 33.3544 19.1192 33.3171 18.8588C33.2692 18.533 33.1851 18.2363 32.76 18.1814C32.8312 18.1534 32.8721 18.1359 32.913 18.1195C33.2482 17.9736 33.4444 17.6839 33.4292 17.3324C33.4152 16.961 33.2528 16.6644 32.8931 16.5289C32.6993 16.4565 32.4797 16.4332 32.2695 16.4262C31.807 16.4087 31.3399 16.4238 30.8786 16.4192C30.7665 16.4192 30.7373 16.4519 30.7373 16.5628C30.742 17.6267 30.7396 18.6941 30.7396 19.7615C30.742 19.8047 30.7443 19.8491 30.749 19.8958C31.0117 19.8958 31.2582 19.8958 31.5174 19.8958C31.5174 19.4322 31.5174 18.9756 31.5174 18.5108C31.7849 18.5108 32.0394 18.5026 32.2952 18.5154C32.4073 18.5201 32.4961 18.596 32.5229 18.7163C32.5475 18.8097 32.5615 18.9032 32.5755 18.9989C32.6187 19.2956 32.6596 19.5922 32.7016 19.8958C32.9772 19.8958 33.2458 19.8958 33.5156 19.8958C33.4876 19.8001 33.4479 19.7207 33.4339 19.6354ZM32.273 17.921C32.0383 17.9455 31.7989 17.9362 31.5595 17.9339C31.5349 17.9339 31.4929 17.8836 31.4929 17.8579C31.4871 17.5777 31.4894 17.2986 31.4894 17.0148C31.7825 17.0148 32.0593 16.9926 32.3326 17.0218C32.5358 17.0428 32.6409 17.232 32.6362 17.4761C32.628 17.7038 32.4867 17.8988 32.273 17.921Z" fill="#EBF5FE"/>
<path d="M39.0914 8.43356C38.8777 7.77489 38.4596 7.2844 37.8278 6.98543C37.4016 6.78339 36.9473 6.70865 36.4801 6.70048C35.8507 6.68997 35.2434 6.78456 34.705 7.13024C33.9506 7.60789 33.6329 8.33896 33.5418 9.19149C33.4893 9.6738 33.5173 10.1526 33.6399 10.6209C33.8011 11.241 34.1234 11.7537 34.6688 12.1099C35.1955 12.4533 35.7841 12.5607 36.4007 12.5782C36.6448 12.5537 36.8947 12.542 37.133 12.4976C38.0427 12.326 38.7142 11.8331 39.0482 10.9514C39.3612 10.1246 39.3635 9.27557 39.0914 8.43356ZM36.8865 10.7073C36.82 11.0238 36.6226 11.1523 36.3412 11.1254C36.1777 11.1138 36.0364 11.0472 35.9838 10.8907C35.9102 10.6735 35.8285 10.4516 35.8168 10.2297C35.804 9.76957 35.825 9.30593 35.8448 8.84347C35.8518 8.70566 35.9021 8.56552 35.9499 8.43356C36.0223 8.2432 36.1671 8.1416 36.3715 8.13576C36.5841 8.12758 36.7417 8.21167 36.834 8.40903C36.9578 8.67647 36.9753 8.96492 36.9975 9.25221C37.0068 9.37717 36.9975 9.5033 36.9975 9.62943C37.0115 9.63059 37.0232 9.63176 37.0372 9.63293C36.9893 9.99146 36.9636 10.3535 36.8865 10.7073Z" fill="#EBF5FE"/>
<path d="M40.7814 16.4227C40.6295 16.425 40.4742 16.4297 40.3189 16.4204C40.2091 16.4145 40.1753 16.4449 40.1753 16.5582C40.1799 17.3651 40.1776 18.1745 40.1776 18.9803C40.1776 19.0118 40.1753 19.0375 40.1706 19.09C40.1472 19.048 40.1344 19.027 40.1227 19.0025C39.7326 18.1815 39.3426 17.3605 38.9549 16.5371C38.9163 16.4519 38.8708 16.418 38.7773 16.4204C38.5064 16.4274 38.232 16.4274 37.9634 16.4204C37.8442 16.418 37.8174 16.4554 37.8174 16.571C37.8197 17.6384 37.8197 18.7035 37.8197 19.7686C37.8197 19.8106 37.8197 19.8503 37.8197 19.9099C38.0136 19.9099 38.1934 19.9099 38.3698 19.9099C38.5379 19.9087 38.5379 19.9087 38.5379 19.7464C38.5379 18.8728 38.5379 17.9993 38.5379 17.1257C38.5449 17.1234 38.5531 17.1234 38.5601 17.1222C38.6606 17.3383 38.761 17.552 38.8614 17.7681C39.1768 18.4489 39.4932 19.1309 39.8144 19.8106C39.8342 19.855 39.902 19.904 39.9499 19.9052C40.2313 19.9145 40.5104 19.9099 40.7907 19.911C40.8643 19.911 40.8958 19.8854 40.8958 19.8083C40.8935 18.7175 40.8935 17.6256 40.8958 16.5325C40.8958 16.4531 40.8678 16.4215 40.7814 16.4227Z" fill="#EBF5FE"/>
<path d="M37.1669 19.7931C37.0454 19.4427 36.924 19.0889 36.799 18.7327C36.5444 17.9993 36.291 17.267 36.0399 16.5313C36.013 16.4472 35.9675 16.4168 35.8776 16.4192C35.6709 16.4262 35.4653 16.4285 35.2621 16.4168C35.1372 16.4087 35.0893 16.4624 35.0496 16.5721C34.7576 17.3931 34.4633 18.213 34.1655 19.0328C34.0651 19.3142 33.9647 19.5945 33.8525 19.904C34.0744 19.904 34.2706 19.8993 34.4668 19.9063C34.5544 19.9087 34.5918 19.8748 34.6175 19.7942C34.6724 19.6191 34.7389 19.4462 34.7903 19.2722C34.8172 19.1905 34.8592 19.1543 34.9526 19.1566C35.2493 19.1636 35.5482 19.1589 35.8449 19.1589C36.1952 19.1589 36.1929 19.1589 36.305 19.4964C36.3482 19.6307 36.3704 19.8082 36.4638 19.8795C36.5549 19.9472 36.7313 19.9028 36.8679 19.904C36.973 19.9063 37.0781 19.9052 37.1961 19.9052C37.1809 19.8479 37.1739 19.8211 37.1669 19.7931ZM35.0414 18.5692C35.2049 18.1009 35.3626 17.6384 35.5354 17.1456C35.6931 17.6337 35.8437 18.095 35.9967 18.5692C35.6732 18.5692 35.3661 18.5692 35.0414 18.5692Z" fill="#EBF5FE"/>
</svg>
