<svg width="19" height="20" viewBox="0 0 19 20" fill="none" xmlns="http://www.w3.org/2000/svg">
<path d="M16.2207 2.80609C14.5136 0.996523 12.2438 0 9.82964 0C7.41543 0 5.14567 0.996523 3.43853 2.80609C1.73139 4.61566 0.79131 7.02152 0.79131 9.58059C0.79131 11.2016 1.17843 12.7946 1.91325 14.2057L0 20L5.46628 17.972C6.7975 18.7508 8.3003 19.1612 9.8296 19.1612C12.2438 19.1612 14.5136 18.1646 16.2206 16.3551C17.9278 14.5456 18.8679 12.1397 18.8679 9.58059C18.8679 7.02148 17.9278 4.61562 16.2207 2.80609ZM14.2978 13.1396L13.2543 14.2457C12.39 15.162 9.93732 14.0478 7.77631 11.7571C5.61527 9.46641 4.56416 6.86668 5.42858 5.95039L6.47199 4.84438C6.68809 4.61531 7.03847 4.61531 7.25457 4.84438L8.55885 6.22691C8.77495 6.45598 8.77495 6.82738 8.55885 7.05645L7.77627 7.88598C8.53538 9.58469 9.82577 10.9525 11.4283 11.7571L12.2109 10.9276C12.427 10.6985 12.7774 10.6985 12.9935 10.9276L14.2978 12.3101C14.5139 12.5392 14.5139 12.9106 14.2978 13.1396Z" fill="#EBF5FE"/>
</svg>
